<?xml version="1.0" standalone="no"?>
<!DOCTYPE svg PUBLIC "-//W3C//DTD SVG 20010904//EN"
 "http://www.w3.org/TR/2001/REC-SVG-20010904/DTD/svg10.dtd">
<svg version="1.0" xmlns="http://www.w3.org/2000/svg"
 width="700.000000pt" height="700.000000pt" viewBox="0 0 700.000000 700.000000"
 preserveAspectRatio="xMidYMid meet">
<metadata>
Created by potrace 1.11, written by Peter Selinger 2001-2013
</metadata>
<g transform="translate(0.000000,700.000000) scale(0.100000,-0.100000)"
fill="#000000" stroke="none">
<path d="M3405 6063 c-453 -38 -779 -234 -1047 -629 -74 -108 -178 -324 -223
-459 -40 -123 -91 -332 -100 -415 -4 -30 -8 -57 -10 -60 -1 -3 -6 -45 -10 -95
-3 -49 -9 -110 -11 -135 -7 -62 -7 -413 0 -458 3 -20 8 -73 12 -117 3 -44 7
-82 9 -85 1 -3 6 -32 9 -65 4 -33 9 -67 11 -75 2 -8 7 -29 10 -47 3 -18 19
-84 35 -148 123 -479 398 -875 748 -1078 96 -56 238 -113 332 -132 8 -2 34 -8
57 -13 23 -5 44 -7 48 -4 3 3 5 1 5 -5 0 -24 -227 -33 -338 -15 -56 10 -249 8
-291 -2 -126 -29 -239 -90 -327 -176 -223 -216 -242 -494 -47 -707 l29 -32 29
25 c17 15 41 34 54 45 l23 19 -42 47 c-54 62 -79 112 -84 166 -8 106 57 161
190 161 66 0 79 -4 220 -71 82 -39 235 -112 340 -161 105 -50 240 -114 300
-142 448 -214 512 -240 619 -255 81 -11 161 -13 207 -5 24 5 57 10 73 13 52 9
141 46 205 88 209 135 325 354 289 546 -20 106 -109 237 -191 279 -27 14 -30
13 -77 -22 l-49 -37 73 -71 c61 -60 76 -80 89 -126 37 -129 -13 -196 -155
-207 -90 -8 -156 12 -331 99 -89 44 -291 144 -448 221 l-285 140 110 22 c373
75 642 210 866 434 234 235 444 589 548 926 34 111 76 285 86 355 3 25 10 70
15 100 19 116 28 455 16 589 -3 24 -7 74 -11 110 -6 69 -13 119 -20 161 -3 14
-8 43 -11 65 -10 69 -54 246 -84 335 -118 354 -318 652 -565 841 -148 114
-358 211 -505 235 -51 8 -71 11 -110 18 -37 7 -234 13 -285 9z m155 -120 c42
-2 79 -7 142 -19 63 -12 199 -64 268 -104 113 -63 186 -119 280 -211 202 -198
348 -448 453 -774 34 -106 82 -318 92 -407 14 -132 19 -229 19 -363 -1 -245
-21 -405 -79 -630 -94 -364 -256 -661 -479 -879 -124 -120 -167 -154 -286
-221 -157 -89 -255 -116 -430 -119 -148 -3 -266 12 -381 50 -149 49 -247 120
-442 319 -339 345 -483 718 -533 1385 -37 480 98 1008 356 1394 233 348 541
548 893 579 40 4 47 2 47 -13 0 -10 -6 -20 -13 -23 -8 -3 -11 -19 -9 -46 3
-25 8 -38 15 -34 6 4 7 1 1 -8 -4 -8 -7 -25 -6 -39 1 -23 1 -23 -7 -5 -9 19
-10 19 -10 -2 -1 -12 -5 -25 -11 -28 -10 -6 -11 3 -15 105 -2 51 -4 55 -29 58
-29 4 -31 -5 -17 -56 5 -18 13 -56 16 -85 4 -28 9 -55 12 -59 9 -16 11 -111 3
-134 -6 -14 -6 -24 0 -24 4 0 11 8 13 18 3 9 5 -14 5 -53 0 -38 7 -93 15 -122
8 -28 13 -54 10 -57 -3 -2 -19 -3 -36 -1 -18 1 -23 0 -13 -2 16 -4 17 -7 5
-14 -11 -8 -9 -14 14 -34 18 -16 27 -34 27 -54 0 -53 -21 -135 -46 -178 -13
-23 -24 -44 -24 -46 0 -3 16 -15 35 -27 29 -18 35 -27 35 -56 0 -20 -5 -44
-10 -54 -7 -13 -7 -28 1 -47 7 -18 10 -134 10 -321 l-1 -293 37 4 38 4 2 289
c0 182 5 299 12 317 7 19 8 34 1 47 -5 10 -10 34 -10 54 0 29 6 38 35 56 19
12 35 23 35 25 0 2 -12 26 -26 54 -26 53 -30 68 -40 136 -4 22 -10 41 -14 43
-5 2 8 18 27 36 30 27 34 36 25 52 -6 10 -13 18 -16 17 -16 -8 -26 -1 -26 17
0 11 6 23 13 26 10 4 13 22 10 72 -6 95 -7 338 -2 397 3 48 2 50 -23 53 -18 2
-27 10 -30 27 -4 16 -1 22 6 18 6 -4 31 -8 56 -10z m-97 -225 c-5 -34 -10 -45
-17 -37 -7 7 6 69 14 69 5 0 6 -15 3 -32z m41 -512 c4 -26 13 -67 21 -90 17
-48 19 -69 4 -43 -10 17 -12 17 -29 2 -16 -15 -18 -14 -24 2 -7 17 -8 17 -23
-2 -8 -11 -13 -13 -10 -5 3 8 13 48 23 88 16 64 16 75 3 84 -11 8 -11 9 4 4 9
-3 17 0 17 6 0 26 8 0 14 -46z m-39 -178 c6 -4 2 -8 -7 -8 -10 0 -18 7 -18 17
0 9 3 12 8 7 4 -5 12 -12 17 -16z m75 7 c0 -8 -7 -15 -15 -15 -13 0 -14 3 -3
15 16 18 18 18 18 0z m-37 -39 c4 -10 0 -14 -12 -13 -11 1 -17 7 -14 14 7 17
20 17 26 -1z"/>
<path d="M3577 5904 c-3 -3 -2 -18 2 -32 8 -31 5 -423 -3 -458 -6 -21 -3 -24
24 -24 26 0 29 2 21 23 -10 27 -8 456 2 477 6 12 1 16 -16 18 -13 1 -27 -1
-30 -4z"/>
<path d="M2907 5709 c-25 -19 -26 -23 -13 -38 8 -9 33 -61 56 -116 24 -55 49
-115 57 -133 25 -56 53 -144 53 -165 0 -15 -3 -17 -13 -8 -14 11 -141 210
-143 223 -1 5 -2 19 -3 33 0 14 -5 25 -10 25 -5 0 -7 -9 -4 -20 3 -11 3 -20 0
-20 -8 0 -59 90 -66 117 -6 24 -7 25 -29 6 l-23 -18 67 -100 c36 -54 71 -112
76 -128 6 -15 13 -26 15 -23 7 7 52 -60 72 -107 l17 -39 51 44 c29 23 48 45
42 46 -14 5 -40 61 -110 233 -34 85 -62 166 -62 182 0 15 -1 27 -1 27 -1 0
-14 -10 -29 -21z"/>
<path d="M4122 5657 c-1 -29 -134 -358 -160 -395 l-21 -29 21 -17 c22 -19 26
-18 31 10 2 10 9 30 14 44 6 14 39 95 73 180 34 85 69 163 77 172 16 18 12 33
-16 48 -15 8 -19 5 -19 -13z"/>
<path d="M2851 5661 c-11 -7 -12 -13 -4 -23 6 -7 18 -33 27 -58 l17 -45 -7 40
c-4 22 -7 52 -8 68 -1 29 -4 31 -25 18z"/>
<path d="M3401 5524 c0 -11 3 -14 6 -6 3 7 2 16 -1 19 -3 4 -6 -2 -5 -13z"/>
<path d="M3387 5468 c-4 -18 -9 -43 -13 -55 -5 -19 -2 -23 16 -23 18 0 20 4
14 23 -4 12 -6 37 -5 55 1 17 0 32 -2 32 -3 0 -7 -15 -10 -32z"/>
<path d="M3588 5333 c6 -2 18 -2 25 0 6 3 1 5 -13 5 -14 0 -19 -2 -12 -5z"/>
<path d="M3253 5300 c-34 -14 -28 -21 7 -9 17 6 30 13 30 15 0 6 -12 4 -37 -6z"/>
<path d="M2937 5255 c3 -27 6 -62 6 -77 1 -31 9 -35 25 -15 9 10 8 19 -2 33
-8 11 -19 40 -25 64 l-10 45 6 -50z"/>
<path d="M3740 5293 c8 -3 24 -10 35 -15 20 -9 20 -9 1 6 -11 9 -27 16 -35 15
-14 0 -14 -1 -1 -6z"/>
<path d="M3195 5270 c-3 -6 1 -7 9 -4 18 7 21 14 7 14 -6 0 -13 -4 -16 -10z"/>
<path d="M3801 5266 c2 -2 15 -9 29 -15 24 -11 24 -11 6 3 -16 13 -49 24 -35
12z"/>
<path d="M3160 5250 c-9 -6 -10 -10 -3 -10 6 0 15 5 18 10 8 12 4 12 -15 0z"/>
<path d="M3541 5246 c3 -3 23 -8 45 -12 21 -3 36 -3 33 0 -3 3 -23 8 -45 12
-21 3 -36 3 -33 0z"/>
<path d="M3388 5233 c7 -3 16 -2 19 1 4 3 -2 6 -13 5 -11 0 -14 -3 -6 -6z"/>
<path d="M3860 5236 c0 -2 8 -10 18 -17 15 -13 16 -12 3 4 -13 16 -21 21 -21
13z"/>
<path d="M3348 5223 c7 -3 16 -2 19 1 4 3 -2 6 -13 5 -11 0 -14 -3 -6 -6z"/>
<path d="M3638 5223 c6 -2 18 -2 25 0 6 3 1 5 -13 5 -14 0 -19 -2 -12 -5z"/>
<path d="M3085 5204 c-11 -9 -29 -22 -39 -30 -11 -7 -18 -15 -15 -18 2 -2 22
11 44 30 40 34 47 47 10 18z"/>
<path d="M3285 5210 c-13 -5 -14 -9 -5 -9 8 0 24 4 35 9 13 5 14 9 5 9 -8 0
-24 -4 -35 -9z"/>
<path d="M3720 5200 c8 -5 20 -10 25 -10 6 0 3 5 -5 10 -8 5 -19 10 -25 10 -5
0 -3 -5 5 -10z"/>
<path d="M3932 5183 c18 -15 52 -46 76 -69 23 -23 42 -38 42 -34 0 11 -132
130 -143 130 -5 0 6 -12 25 -27z"/>
<path d="M3240 5190 c-9 -6 -10 -10 -3 -10 6 0 15 5 18 10 8 12 4 12 -15 0z"/>
<path d="M3767 5179 c7 -7 15 -10 18 -7 3 3 -2 9 -12 12 -14 6 -15 5 -6 -5z"/>
<path d="M3183 5160 c-18 -11 -33 -22 -33 -25 0 -2 16 5 35 16 19 12 35 23 35
25 0 6 -3 5 -37 -16z"/>
<path d="M3800 5166 c0 -3 9 -10 20 -16 11 -6 20 -8 20 -6 0 3 -9 10 -20 16
-11 6 -20 8 -20 6z"/>
<path d="M2975 5110 c-21 -22 -37 -41 -34 -43 2 -2 21 16 43 40 49 54 43 56
-9 3z"/>
<path d="M3850 5136 c0 -2 7 -9 15 -16 9 -7 15 -8 15 -2 0 5 -7 12 -15 16 -8
3 -15 4 -15 2z"/>
<path d="M3102 5103 c-24 -24 -24 -25 -2 -8 42 33 44 35 37 35 -4 0 -19 -12
-35 -27z"/>
<path d="M3890 5106 c0 -2 8 -10 18 -17 15 -13 16 -12 3 4 -13 16 -21 21 -21
13z"/>
<path d="M3975 5030 c27 -27 51 -50 54 -50 3 0 -17 23 -44 50 -27 28 -51 50
-54 50 -3 0 17 -22 44 -50z"/>
<path d="M3020 5035 c-18 -19 -32 -36 -29 -38 2 -2 19 14 38 35 42 48 36 50
-9 3z"/>
<path d="M4069 5052 c5 -10 18 -25 27 -33 11 -9 9 -2 -6 19 -26 35 -36 42 -21
14z"/>
<path d="M2396 5044 c-10 -27 -7 -44 8 -38 13 5 92 -84 82 -93 -9 -9 -98 42
-105 60 -7 18 -9 17 -19 -13 -16 -45 -15 -48 11 -56 12 -3 40 -14 62 -24 22
-10 57 -25 77 -33 29 -12 50 -34 87 -91 27 -42 51 -82 54 -89 5 -15 12 -9 21
19 5 17 2 23 -17 28 -14 3 -32 17 -41 31 -9 14 -23 36 -32 50 -17 25 -17 25
10 15 49 -18 85 -40 94 -56 8 -14 11 -11 21 17 6 18 8 36 4 39 -5 3 -46 21
-93 40 -47 18 -91 38 -99 44 -22 17 -111 153 -104 160 4 3 2 6 -4 6 -6 0 -14
-7 -17 -16z"/>
<path d="M4576 5042 c-8 -25 -251 -222 -290 -235 -6 -2 -3 -18 7 -38 9 -19 17
-29 17 -22 0 13 20 32 163 152 99 84 118 96 140 92 9 -1 9 0 -4 38 -12 35 -25
40 -33 13z"/>
<path d="M2874 4988 l-19 -23 23 19 c12 11 22 21 22 23 0 8 -8 2 -26 -19z"/>
<path d="M4110 4996 c0 -2 8 -10 18 -17 15 -13 16 -12 3 4 -13 16 -21 21 -21
13z"/>
<path d="M2956 4962 l-19 -27 24 22 c12 12 21 24 18 27 -2 2 -13 -8 -23 -22z"/>
<path d="M4620 4974 c0 -12 -38 -52 -85 -89 -22 -16 -72 -58 -112 -92 -41 -35
-83 -63 -94 -63 -23 0 -23 -3 -3 -42 16 -30 16 -30 31 -9 20 30 209 188 256
214 32 19 37 26 32 47 -7 26 -25 52 -25 34z"/>
<path d="M4045 4950 c10 -11 20 -20 23 -20 3 0 -3 9 -13 20 -10 11 -20 20 -23
20 -3 0 3 -9 13 -20z"/>
<path d="M2840 4940 c-6 -11 -8 -20 -6 -20 3 0 10 9 16 20 6 11 8 20 6 20 -3
0 -10 -9 -16 -20z"/>
<path d="M2919 4913 c-13 -16 -12 -17 4 -4 16 13 21 21 13 21 -2 0 -10 -8 -17
-17z"/>
<path d="M2813 4898 c-15 -20 -25 -38 -20 -38 3 0 12 11 21 25 17 26 16 35 -1
13z"/>
<path d="M2885 4864 c-9 -15 -12 -23 -6 -20 11 7 35 46 28 46 -3 0 -12 -12
-22 -26z"/>
<path d="M2850 4810 c-6 -11 -8 -20 -6 -20 3 0 10 9 16 20 6 11 8 20 6 20 -3
0 -10 -9 -16 -20z"/>
<path d="M4220 4821 c0 -6 4 -13 10 -16 6 -3 7 1 4 9 -7 18 -14 21 -14 7z"/>
<path d="M4166 4767 c3 -10 9 -15 12 -12 3 3 0 11 -7 18 -10 9 -11 8 -5 -6z"/>
<path d="M4200 4691 c0 -6 4 -13 10 -16 6 -3 7 1 4 9 -7 18 -14 21 -14 7z"/>
<path d="M2785 4679 c-4 -6 -5 -12 -2 -15 2 -3 7 2 10 11 7 17 1 20 -8 4z"/>
<path d="M2685 4619 c-4 -6 -5 -12 -2 -15 2 -3 7 2 10 11 7 17 1 20 -8 4z"/>
<path d="M4236 4607 c3 -10 9 -15 12 -12 3 3 0 11 -7 18 -10 9 -11 8 -5 -6z"/>
<path d="M4250 4565 c0 -5 5 -17 10 -25 5 -8 10 -10 10 -5 0 6 -5 17 -10 25
-5 8 -10 11 -10 5z"/>
<path d="M4361 4424 c0 -11 3 -14 6 -6 3 7 2 16 -1 19 -3 4 -6 -2 -5 -13z"/>
<path d="M4301 4364 c0 -11 3 -14 6 -6 3 7 2 16 -1 19 -3 4 -6 -2 -5 -13z"/>
<path d="M2616 4333 c-6 -14 -5 -15 5 -6 7 7 10 15 7 18 -3 3 -9 -2 -12 -12z"/>
<path d="M2202 4182 c2 -34 5 -37 27 -23 16 10 104 -16 96 -29 -4 -7 -27 -13
-95 -26 -8 -2 -18 2 -23 9 -4 7 -6 -6 -5 -28 2 -30 7 -39 18 -36 8 2 44 13 80
23 36 11 75 22 88 25 26 6 162 -43 162 -58 0 -6 4 -8 9 -4 5 3 9 19 9 35 -1
27 -3 29 -17 16 -9 -7 -23 -12 -31 -10 -33 8 -90 29 -90 34 0 8 92 34 115 32
17 -1 21 5 22 34 1 29 -2 34 -16 29 -9 -4 -54 -20 -101 -36 l-85 -30 -65 22
c-36 12 -73 28 -83 37 -16 15 -17 14 -15 -16z"/>
<path d="M3536 4163 c4 -21 12 -54 19 -73 29 -88 -21 -192 -82 -169 -55 20
-72 103 -42 202 19 63 19 74 -1 62 -28 -17 -49 -90 -47 -160 3 -82 21 -117 79
-158 57 -40 92 -120 92 -213 1 -61 4 -73 21 -80 21 -10 71 -91 61 -101 -3 -3
-12 0 -21 7 -25 21 -65 -12 -65 -53 0 -31 14 -57 32 -57 4 0 8 7 8 15 0 8 7
15 15 15 20 0 19 -19 -6 -92 -42 -126 -7 -268 65 -268 14 0 30 -10 40 -25 9
-14 27 -27 41 -31 30 -7 31 -12 8 -31 -10 -7 0 -5 22 7 34 17 41 18 53 6 12
-11 12 -20 1 -49 -10 -29 -10 -39 0 -51 8 -9 19 -16 26 -16 7 0 15 -11 19 -23
3 -13 28 -58 55 -100 28 -42 57 -90 66 -107 22 -43 36 -28 20 23 -13 43 -29
185 -18 157 3 -8 16 -28 28 -45 38 -50 132 -239 127 -253 -3 -11 0 -12 16 -3
31 16 36 30 19 49 -9 9 -31 46 -50 82 -82 152 -167 294 -167 280 0 -13 -1 -13
-10 0 -5 8 -5 19 -1 25 9 11 22 69 13 61 -2 -3 -11 2 -19 10 -9 8 -22 13 -29
10 -20 -8 -18 23 4 48 13 16 13 18 1 8 -14 -10 -13 -4 3 45 12 34 19 78 17
107 -1 28 3 70 9 93 17 57 0 123 -43 169 -28 29 -39 34 -78 34 -37 0 -47 4
-52 21 -7 22 -1 34 18 34 19 0 20 34 2 61 -28 42 -65 6 -75 -73 -1 -10 -8 4
-15 32 -8 27 -12 68 -9 90 4 34 1 41 -18 50 -13 6 -36 36 -53 70 -27 55 -29
70 -31 175 -2 115 -16 174 -49 206 -22 22 -26 16 -19 -23z m154 -473 c0 -5 -2
-10 -4 -10 -3 0 -8 5 -11 10 -3 6 -1 10 4 10 6 0 11 -4 11 -10z m121 -227 c20
5 26 -7 10 -18 -6 -3 -8 -14 -6 -25 3 -16 1 -18 -14 -8 -10 6 -26 25 -36 41
-17 29 -17 29 5 17 12 -6 31 -10 41 -7z m93 -65 c20 -47 10 -63 -23 -37 -43
34 -49 69 -10 69 13 0 25 -11 33 -32z m-225 -81 c1 -34 -1 -37 -18 -28 -10 6
-22 7 -26 3 -5 -4 -1 4 8 18 9 13 17 40 18 60 1 32 2 33 9 10 4 -14 8 -42 9
-63z m178 -9 c19 -15 16 -28 -7 -28 -21 0 -60 33 -60 50 0 11 46 -4 67 -22z
m-122 -101 c-3 -16 -10 -37 -15 -46 -11 -20 -14 39 -3 90 6 31 7 31 15 10 4
-13 6 -37 3 -54z m-74 26 c5 -60 3 -113 -3 -113 -22 0 -36 77 -22 114 8 21 24
20 25 -1z m153 -4 c26 -15 44 -19 66 -14 28 6 30 5 30 -24 0 -34 -34 -76 -51
-65 -8 4 -7 9 1 14 17 11 8 54 -12 58 -12 2 -19 -5 -24 -22 -4 -16 -13 -26
-24 -26 -10 0 -21 -7 -24 -16 -11 -28 -6 -54 9 -54 21 0 19 -27 -4 -39 -13 -7
-24 -6 -37 3 -18 14 -18 15 3 58 12 24 24 67 25 96 2 29 4 52 5 52 1 0 18 -9
37 -21z m61 -197 c0 -39 -2 -47 -9 -32 -5 11 -18 22 -28 26 -13 4 -17 11 -13
22 4 10 8 22 8 28 0 7 10 11 21 10 18 -1 21 -7 21 -54z m112 -204 c-3 -8 -6
-5 -6 6 -1 11 2 17 5 13 3 -3 4 -12 1 -19z"/>
<path d="M4430 4078 c0 -27 5 -48 10 -48 6 0 10 5 10 11 0 15 332 10 342 -5 4
-6 8 6 8 26 0 37 -13 57 -25 38 -4 -6 -67 -10 -162 -10 -137 0 -157 2 -169 18
-12 15 -13 11 -14 -30z"/>
<path d="M3464 4056 c-8 -35 4 -66 26 -66 22 0 34 31 26 66 -4 15 -14 24 -26
24 -12 0 -22 -9 -26 -24z"/>
<path d="M2200 3989 l0 -34 175 2 c112 1 175 -2 175 -8 0 -6 4 -8 8 -5 5 3 9
22 10 42 1 28 -1 34 -11 25 -19 -15 -324 -16 -342 -1 -13 11 -15 7 -15 -21z"/>
<path d="M4430 3982 c0 -38 2 -42 18 -33 22 12 311 11 335 -1 15 -8 17 -3 17
34 0 33 -3 39 -12 30 -17 -17 -329 -17 -346 0 -9 9 -12 3 -12 -30z"/>
<path d="M4381 3834 c0 -11 3 -14 6 -6 3 7 2 16 -1 19 -3 4 -6 -2 -5 -13z"/>
<path d="M4301 3774 c0 -11 3 -14 6 -6 3 7 2 16 -1 19 -3 4 -6 -2 -5 -13z"/>
<path d="M4291 3724 c0 -11 3 -14 6 -6 3 7 2 16 -1 19 -3 4 -6 -2 -5 -13z"/>
<path d="M2595 3588 c-14 -30 -274 -238 -290 -231 -9 3 -3 -24 18 -76 18 -45
36 -81 40 -81 5 0 6 4 3 9 -4 5 22 34 56 64 104 91 222 187 231 187 4 0 10 -7
14 -16 7 -19 -44 -71 -142 -146 -33 -25 -73 -58 -90 -73 -16 -15 -39 -31 -51
-34 -21 -6 -22 -7 -8 -41 l15 -34 18 30 c10 16 29 37 42 46 13 9 33 24 44 35
48 45 191 148 203 145 10 -2 9 6 -4 35 -8 21 -18 45 -21 53 -3 8 -11 29 -18
45 -7 17 -20 47 -29 68 -8 20 -16 37 -18 37 -2 0 -8 -10 -13 -22z m40 -58 c9
-15 -12 -40 -85 -101 -107 -90 -202 -159 -211 -153 -24 14 10 56 104 129 21
17 68 54 105 82 71 56 77 59 87 43z"/>
<path d="M4316 3555 c-9 -26 -7 -32 5 -12 6 10 9 21 6 23 -2 3 -7 -2 -11 -11z"/>
<path d="M4341 3499 c-14 -40 -14 -39 4 -39 19 0 281 -216 290 -238 5 -14 9
-13 20 8 16 28 19 54 7 46 -20 -12 -292 212 -292 241 0 25 -18 13 -29 -18z"/>
<path d="M4215 3489 c-4 -6 -5 -12 -2 -15 2 -3 7 2 10 11 7 17 1 20 -8 4z"/>
<path d="M2790 3455 c0 -5 5 -17 10 -25 5 -8 10 -10 10 -5 0 6 -5 17 -10 25
-5 8 -10 11 -10 5z"/>
<path d="M4186 3413 c-6 -14 -5 -15 5 -6 7 7 10 15 7 18 -3 3 -9 -2 -12 -12z"/>
<path d="M2816 3397 c3 -10 9 -15 12 -12 3 3 0 11 -7 18 -10 9 -11 8 -5 -6z"/>
<path d="M4256 3395 c-9 -26 -7 -32 5 -12 6 10 9 21 6 23 -2 3 -7 -2 -11 -11z"/>
<path d="M4300 3366 c0 -3 38 -49 85 -101 47 -53 85 -92 85 -88 0 5 -19 27
-41 51 -23 23 -38 42 -35 42 17 0 188 -104 201 -122 8 -12 16 -20 18 -17 9 10
25 68 19 67 -12 -2 -42 13 -167 82 -157 87 -165 92 -165 86z"/>
<path d="M2850 3331 c0 -6 4 -13 10 -16 6 -3 7 1 4 9 -7 18 -14 21 -14 7z"/>
<path d="M4216 3313 c-6 -14 -5 -15 5 -6 7 7 10 15 7 18 -3 3 -9 -2 -12 -12z"/>
<path d="M2780 3301 c0 -6 4 -13 10 -16 6 -3 7 1 4 9 -7 18 -14 21 -14 7z"/>
<path d="M4118 3293 c-18 -21 -31 -43 -25 -43 2 0 13 14 25 30 25 33 24 41 0
13z"/>
<path d="M2695 3264 c-27 -15 -58 -36 -68 -48 -10 -11 -16 -15 -12 -8 5 9 -9
5 -35 -8 -23 -12 -40 -24 -37 -26 3 -3 17 2 31 12 42 27 42 8 0 -38 -88 -99
-108 -118 -125 -123 -15 -5 -16 -10 -7 -35 10 -30 23 -39 30 -21 3 11 62 78
196 228 46 51 82 93 80 93 -2 -1 -25 -12 -53 -26z"/>
<path d="M4196 3273 c-6 -14 -5 -15 5 -6 7 7 10 15 7 18 -3 3 -9 -2 -12 -12z"/>
<path d="M2930 3210 c17 -22 37 -43 43 -47 6 -4 -6 14 -27 40 -21 26 -40 47
-43 47 -3 0 10 -18 27 -40z"/>
<path d="M4069 3223 c-13 -16 -12 -17 4 -4 9 7 17 15 17 17 0 8 -8 3 -21 -13z"/>
<path d="M2840 3201 c5 -11 15 -23 21 -27 6 -3 3 5 -6 20 -20 30 -30 35 -15 7z"/>
<path d="M4145 3194 c-9 -15 -12 -23 -6 -20 11 7 35 46 28 46 -3 0 -12 -12
-22 -26z"/>
<path d="M4007 3146 c-65 -73 -66 -75 -34 -46 29 25 92 100 85 100 -2 0 -25
-24 -51 -54z"/>
<path d="M2467 3140 c-70 -34 -71 -35 -63 -56 6 -16 8 -15 22 4 8 12 35 33 59
48 25 14 45 28 45 30 0 5 4 7 -63 -26z"/>
<path d="M4480 3162 c0 -4 15 -23 33 -42 19 -19 39 -46 46 -59 10 -19 15 -21
22 -10 13 21 11 39 -4 33 -8 -3 -32 15 -55 40 -23 25 -42 42 -42 38z"/>
<path d="M2870 3156 c0 -2 8 -10 18 -17 15 -13 16 -12 3 4 -13 16 -21 21 -21
13z"/>
<path d="M4109 3143 c-13 -16 -12 -17 4 -4 16 13 21 21 13 21 -2 0 -10 -8 -17
-17z"/>
<path d="M2997 3130 c10 -11 19 -20 21 -20 1 0 -2 9 -8 20 -6 11 -15 20 -20
20 -6 0 -2 -9 7 -20z"/>
<path d="M2921 3094 c13 -17 26 -30 28 -27 3 2 -8 16 -24 31 l-28 27 24 -31z"/>
<path d="M4074 3098 l-19 -23 23 19 c21 18 27 26 19 26 -2 0 -12 -10 -23 -22z"/>
<path d="M3051 3078 c2 -2 18 -14 34 -28 l30 -25 -24 28 c-14 15 -29 27 -34
27 -6 0 -8 -1 -6 -2z"/>
<path d="M4009 3023 l-24 -28 28 24 c25 23 32 31 24 31 -2 0 -14 -12 -28 -27z"/>
<path d="M2990 3022 c6 -13 14 -21 18 -18 3 4 -2 14 -12 24 -18 16 -18 16 -6
-6z"/>
<path d="M3145 3006 c17 -14 34 -26 39 -26 11 0 11 0 -34 29 l-35 23 30 -26z"/>
<path d="M2916 3006 c6 -16 -124 -349 -157 -402 -18 -30 -18 -32 -1 -48 25
-21 32 -20 32 5 0 19 30 98 114 299 40 97 51 114 65 106 15 -10 8 -42 -24
-118 -37 -86 -39 -92 -76 -183 -18 -44 -41 -93 -52 -108 -18 -27 -18 -29 -2
-48 24 -25 35 -24 35 4 0 13 29 93 64 178 91 219 94 227 108 231 8 3 4 11 -11
24 -13 10 -37 31 -54 47 -35 30 -49 35 -41 13z"/>
<path d="M3029 2986 c15 -18 101 -80 101 -73 0 2 -26 23 -57 47 -32 24 -52 35
-44 26z"/>
<path d="M3227 2959 c7 -7 15 -10 18 -7 3 3 -2 9 -12 12 -14 6 -15 5 -6 -5z"/>
<path d="M3270 2940 c8 -5 20 -10 25 -10 6 0 3 5 -5 10 -8 5 -19 10 -25 10 -5
0 -3 -5 5 -10z"/>
<path d="M3678 2923 c7 -3 16 -2 19 1 4 3 -2 6 -13 5 -11 0 -14 -3 -6 -6z"/>
<path d="M3348 2913 c7 -3 16 -2 19 1 4 3 -2 6 -13 5 -11 0 -14 -3 -6 -6z"/>
<path d="M3616 2911 c-3 -4 6 -6 19 -3 14 2 25 6 25 8 0 8 -39 4 -44 -5z"/>
<path d="M3140 2906 c0 -3 9 -10 20 -16 11 -6 20 -8 20 -6 0 3 -9 10 -20 16
-11 6 -20 8 -20 6z"/>
<path d="M3410 2906 c0 -2 11 -6 25 -8 13 -3 22 -1 19 3 -5 9 -44 13 -44 5z"/>
<path d="M3575 2900 c-3 -6 1 -7 9 -4 18 7 21 14 7 14 -6 0 -13 -4 -16 -10z"/>
<path d="M3478 2893 c6 -2 18 -2 25 0 6 3 1 5 -13 5 -14 0 -19 -2 -12 -5z"/>
<path d="M3206 2865 c10 -8 23 -15 28 -15 6 0 1 7 -10 15 -10 8 -23 15 -28 15
-6 0 -1 -7 10 -15z"/>
<path d="M3763 2860 c-24 -10 -43 -21 -43 -24 0 -6 77 27 87 37 10 11 1 8 -44
-13z"/>
<path d="M3045 2804 c-20 -36 -35 -68 -32 -71 3 -2 -1 -28 -10 -56 -8 -28 -17
-60 -19 -71 -9 -49 -48 -152 -60 -162 -12 -9 -11 -14 4 -26 30 -26 38 -27 40
-3 1 13 26 108 55 212 62 217 69 243 63 243 -2 0 -21 -30 -41 -66z"/>
<path d="M3685 2830 c-16 -7 -17 -9 -3 -9 9 -1 20 4 23 9 7 11 7 11 -20 0z"/>
<path d="M3308 2823 c7 -3 16 -2 19 1 4 3 -2 6 -13 5 -11 0 -14 -3 -6 -6z"/>
<path d="M3348 2813 c6 -2 18 -2 25 0 6 3 1 5 -13 5 -14 0 -19 -2 -12 -5z"/>
<path d="M3628 2813 c6 -2 18 -2 25 0 6 3 1 5 -13 5 -14 0 -19 -2 -12 -5z"/>
<path d="M3428 2803 c7 -3 16 -2 19 1 4 3 -2 6 -13 5 -11 0 -14 -3 -6 -6z"/>
<path d="M3558 2803 c6 -2 18 -2 25 0 6 3 1 5 -13 5 -14 0 -19 -2 -12 -5z"/>
<path d="M4013 2745 c3 -11 11 -40 17 -64 6 -23 13 -41 15 -39 6 5 -22 108
-31 117 -3 3 -4 -3 -1 -14z"/>
<path d="M3417 2493 l2 -256 35 1 c20 0 39 1 44 1 4 1 6 20 3 43 l-4 43 -11
-34 c-24 -72 -31 -30 -33 201 -1 153 2 237 9 245 8 10 4 13 -18 13 l-29 0 2
-257z"/>
<path d="M3530 2697 c0 -26 -1 -50 -2 -54 -10 -41 -14 -82 -8 -78 10 6 29
-149 34 -270 2 -54 4 -60 21 -57 26 5 24 -1 15 59 -5 29 -11 83 -15 120 -7 84
-14 147 -20 193 -2 19 -7 55 -11 80 -8 61 -14 64 -14 7z"/>
<path d="M2981 2694 c-12 -20 -20 -39 -17 -41 2 -3 14 13 26 36 25 51 20 54
-9 5z"/>
<path d="M2935 2614 c-9 -14 -14 -28 -12 -31 3 -3 13 9 22 26 19 38 14 41 -10
5z"/>
<path d="M2886 2528 c-26 -40 -28 -68 -5 -68 6 0 9 6 6 13 -3 8 3 33 13 55 11
23 18 42 16 42 -1 0 -15 -19 -30 -42z"/>
<path d="M4075 2530 c6 -45 13 -82 17 -86 2 -2 10 1 18 6 11 7 11 12 2 23 -7
8 -19 32 -27 53 l-15 39 5 -35z"/>
</g>
</svg>
