<?xml version="1.0" encoding="UTF-8" standalone="no"?>
<!-- Created with Inkscape (http://www.inkscape.org/) -->

<svg
         xmlns:dc="http://purl.org/dc/elements/1.1/"
         xmlns:cc="http://creativecommons.org/ns#"
         xmlns:rdf="http://www.w3.org/1999/02/22-rdf-syntax-ns#"
         xmlns:svg="http://www.w3.org/2000/svg"
         xmlns="http://www.w3.org/2000/svg"
         version="1.1"
         width="50"
         height="50"
         viewBox="0 0 216 216"
         id="svg5329">
        <metadata
           id="metadata5335">
          <rdf:RDF>
            <cc:Work
               rdf:about="">
              <dc:format>image/svg+xml</dc:format>
              <dc:type
                 rdf:resource="http://purl.org/dc/dcmitype/StillImage" />
              <dc:title></dc:title>
            </cc:Work>
          </rdf:RDF>
        </metadata>
        <defs
           id="defs5333">
          <filter
             color-interpolation-filters="sRGB"
             id="filter7133">
            <feFlood
               result="flood"
               flood-color="rgb(0,0,0)"
               flood-opacity="1"
               id="feFlood7135" />
            <feComposite
               in2="SourceGraphic"
               operator="in"
               in="flood"
               result="composite1"
               id="feComposite7137" />
            <feGaussianBlur
               result="blur"
               stdDeviation="5"
               id="feGaussianBlur7139" />
            <feOffset
               result="offset"
               dy="5"
               dx="5"
               id="feOffset7141" />
            <feComposite
               in2="offset"
               operator="over"
               in="SourceGraphic"
               result="composite2"
               id="feComposite7143" />
          </filter>
        </defs>
        <path
           d="m 98.621725,202.05354 c -0.71985,-6.36271 -0.70033,-6.3435 -7.62812,-7.50442 -3.47073,-0.5816 -3.59089,-0.48699 -6.23914,4.91268 -1.48513,3.02814 -3.06769,5.50571 -3.51679,5.50571 -0.76544,0 -18.41063,-6.91883 -18.95698,-7.4332 -0.13848,-0.13037 0.41915,-2.44874 1.23918,-5.15192 2.06238,-6.79852 2.03291,-6.90453 -2.6958,-9.69713 l -4.20842,-2.48533 -4.79268,4.04125 -4.79267,4.04125 -6.74891,-6.34676 c -3.7119,-3.49072 -7.14661,-6.68178 -7.63269,-7.09124 -0.48608,-0.40946 0.80894,-3.05042 2.87781,-5.86878 l 3.76158,-5.12431 -3.30121,-4.69191 c -1.81567,-2.58056 -3.37435,-4.80559 -3.46373,-4.94451 -0.0894,-0.13892 -2.78518,0.64974 -5.99067,1.75259 -3.20548,1.10285 -5.94086,1.89151 -6.07861,1.75259 -0.13775,-0.13892 -2.04659,-4.39511 -4.24187,-9.4582 -4.38169,-10.10568 -4.4713,-9.64573 2.57048,-13.19369 2.3375,-1.17774 4.25,-2.38292 4.25,-2.67819 0,-0.29527 -0.42403,-2.42363 -0.94228,-4.72968 -0.51826,-2.30605 -1.19631,-5.40832 -1.50678,-6.89393 -0.51649,-2.47137 -1.07701,-2.7591 -6.5902,-3.38284 l -6.02571,-0.68173 0.28249,-10.61716 0.28248,-10.617163 5.93986,-0.5 5.93985,-0.5 1.16076,-4.570562 1.16076,-4.570561 -5.35061,-2.894364 c -2.94284,-1.5919 -5.35062,-3.244541 -5.35062,-3.672536 0,-1.696179 7.25901,-18.791977 7.97922,-18.791977 0.42313,0 2.68248,0.675 5.02078,1.5 2.3383,0.825 4.78325,1.5 5.43323,1.5 1.17016,0 7.56677,-8.326103 7.56677,-9.849238 0,-0.43492 -1.6441,-2.711531 -3.65356,-5.059134 l -3.65357,-4.268369 7.56508,-7.565075 7.56507,-7.565074 4.75038,4.0605 4.75038,4.060501 4.08811,-2.615461 c 2.24846,-1.438504 4.20178,-2.672844 4.3407,-2.742978 0.13893,-0.07014 -0.62105,-2.666805 -1.68884,-5.770378 -1.45779,-4.237137 -1.64527,-5.834107 -0.75259,-6.410566 2.37683,-1.534866 16.05745,-7.274728 17.33888,-7.274728 0.72395,0 2.47594,2.288501 3.89332,5.085558 l 2.57704,5.085558 5.1898,-0.699889 c 6.5184,-0.879063 6.6898,-0.99193 6.6898,-4.405244 0,-1.548791 0.28125,-4.222233 0.625,-5.940983 l 0.625,-3.125 10.250005,0 10.25,0 0.625,3.125 c 0.34375,1.71875 0.625,4.546974 0.625,6.284942 0,3.031827 0.21753,3.199792 5.36535,4.142823 l 5.36534,0.98288 2.84958,-5.267822 c 1.56727,-2.897303 3.19976,-5.267823 3.62775,-5.267823 1.69618,0 18.79198,7.259011 18.79198,7.979222 0,0.423129 -0.675,2.682479 -1.5,5.020778 -2.10815,5.97513 -1.98937,6.410376 2.57336,9.429849 l 4.07336,2.695621 3.54011,-2.812735 c 1.94706,-1.547004 4.12663,-3.236832 4.84349,-3.755172 0.93835,-0.678492 3.21712,0.841108 8.13653,5.425851 3.75823,3.502558 6.97809,6.96132 7.15526,7.686138 0.17716,0.724817 -1.31228,3.3124 -3.30985,5.750183 l -3.63198,4.432334 2.99814,4.138799 c 1.64897,2.276339 3.14273,4.572604 3.31946,5.102809 0.1829,0.548708 2.7852,0.116319 6.04051,-1.003672 4.29182,-1.476604 5.91076,-1.670982 6.48687,-0.778844 1.53487,2.376829 7.27473,16.057444 7.27473,17.338875 0,0.72395 -2.30327,2.483427 -5.11837,3.909949 -5.0196,2.54362 -5.10666,2.664566 -4.51101,6.266846 0.33405,2.020243 0.61232,4.460669 0.61837,5.423169 0.008,1.318814 0.84258,1.75 3.38601,1.75 1.85625,0 4.78125,0.28125 6.5,0.625 l 3.125,0.625 0,10.250003 0,10.25 -3.125,0.625 c -1.71875,0.34375 -4.43287,0.625 -6.03138,0.625 -3.07542,0 -3.33539,0.37308 -4.29477,6.16339 -0.60287,3.63862 -0.5696,3.6805 4.92209,6.19467 3.04098,1.39221 5.52906,2.91874 5.52906,3.39229 0,0.79578 -6.90059,18.4357 -7.4332,19.00143 -0.13037,0.13848 -2.44873,-0.41915 -5.15192,-1.23918 -2.70319,-0.82003 -5.41012,-1.49583 -6.0154,-1.50179 -0.60529,-0.006 -2.52498,2.28064 -4.26598,5.08132 l -3.16545,5.09214 3.96398,4.73454 3.96398,4.73453 -7.46027,7.41048 c -5.62268,5.58516 -7.79876,7.16732 -8.83453,6.42332 -0.75585,-0.54293 -2.98033,-2.26281 -4.9433,-3.82194 l -3.56902,-2.83479 -3.79445,2.79434 c -2.08694,1.53689 -3.90811,2.85121 -4.04703,2.92071 -0.13892,0.0695 0.64974,2.74905 1.75259,5.95453 1.10285,3.20548 1.89151,5.94086 1.75259,6.07861 -0.13892,0.13775 -4.39511,2.04659 -9.4582,4.24187 -10.10569,4.38169 -9.64574,4.4713 -13.1937,-2.57048 -2.42344,-4.80989 -1.93069,-4.64257 -8.60068,-2.92057 l -5,1.29086 -0.5,5.93985 -0.5,5.93986 -10.61717,0.28248 -10.617155,0.28249 -0.67644,-5.97894 z m 10.410765,-16.94143 0,-19.85539 -6.25,-0.60365 c -13.318185,-1.28632 -29.002895,-9.4362 -38.038195,-19.7649 -21.7423,-24.85471 -16.86873,-63.712909 10.39191,-82.857311 8.67953,-6.095393 15.9248,-8.979757 26.146285,-10.40891 l 7.75,-1.083594 0,-19.842917 0,-19.842917 -4.25,0.307498 -4.25,0.307498 -0.31,5 c -0.17049,2.75 -0.634295,5.328797 -1.030655,5.73066 -0.39637,0.401864 -4.005,1.351686 -8.01919,2.110716 l -7.29851,1.380056 -2.62914,-5.360716 c -1.44603,-2.948394 -2.94345,-5.360716 -3.32761,-5.360716 -1.68038,0 -13.8849,6.00557 -13.8849,6.83245 0,0.503853 0.675,2.829251 1.5,5.16755 0.825,2.338299 1.5,4.581165 1.5,4.984147 0,0.918942 -10.60814,8.015853 -11.98173,8.015853 -0.55688,0 -2.84283,-1.653585 -5.07989,-3.674632 l -4.06737,-3.674633 -5.58778,5.587774 -5.58777,5.587773 3.65227,4.266858 c 2.00875,2.346771 3.65227,4.614298 3.65227,5.038948 0,1.184584 -9.0536,13.867912 -9.89918,13.867912 -0.4095,0 -2.88528,-0.729423 -5.50174,-1.62094 -2.64141,-0.90002 -5.09206,-1.233586 -5.51012,-0.75 -0.88189,1.020125 -5.08896,11.278935 -5.08896,12.409271 0,0.424394 2.1375,2.005238 4.75,3.512988 2.6125,1.507749 4.91321,2.876219 5.11269,3.041044 0.19948,0.164826 -0.17731,2.686473 -0.83731,5.60366 -2.13614,9.441656 -1.54998,8.803977 -8.09277,8.803977 l -5.93261,0 0,7.901813 0,7.90182 5.85983,0.6801 5.85982,0.68011 1.67387,8.51916 c 0.92063,4.68554 1.77121,9.01223 1.89018,9.61487 0.11896,0.60263 -2.1257,2.37474 -4.98816,3.93801 l -5.20445,2.84232 2.62311,6.2109 c 1.4427,3.41598 2.94626,6.58744 3.34124,7.04768 0.39497,0.46023 3.23862,0.0423 6.31922,-0.9288 3.08059,-0.97107 5.75386,-1.57263 5.94059,-1.33679 0.18673,0.23584 2.26926,3.22258 4.62784,6.6372 l 4.28833,6.20839 -3.57323,4.86772 -3.57323,4.86771 5.38271,5.31585 5.38271,5.31585 4.25481,-3.64196 c 2.34014,-2.00308 4.66868,-3.64196 5.17452,-3.64196 0.50584,0 3.36848,1.4625 6.36142,3.25 5.89503,3.52073 5.78223,3.15036 3.80167,12.48338 -0.6614,3.11674 -0.51041,3.3096 4.18553,5.34612 10.07663,4.37001 9.1093,4.49977 12.1131,-1.62486 l 2.70265,-5.51059 4.04418,0.60646 c 11.299205,1.69442 10.924575,1.4503 11.875255,7.73817 0.85486,5.6541 0.89744,5.71132 4.25,5.71132 l 3.38649,0 0,-19.8554 z m 68.7603,-9.40189 5.19198,-5.25728 -3.95488,-4.62682 -3.95488,-4.62681 4.409,-6.71283 c 2.42495,-3.69205 4.58269,-6.88651 4.79497,-7.0988 0.21229,-0.21228 1.80711,0.0216 3.54405,0.51976 l 3.15808,0.90572 -0.0497,-41.83137 -0.0497,-41.831396 -3.16797,0.908562 c -1.74246,0.499708 -3.47083,0.908561 -3.84091,0.908561 -0.37007,0 -2.69341,-3.025368 -5.16298,-6.72304 l -4.49012,-6.72304 3.85843,-4.608472 3.85843,-4.608472 -5.23349,-5.168488 c -2.87843,-2.842668 -5.69766,-5.168488 -6.26496,-5.168488 -0.56731,0 -2.21266,1.2375 -3.65634,2.75 l -2.62488,2.75 0.008,67.708173 0.008,67.70816 3.46445,3.04183 c 1.90545,1.67301 3.80167,3.04183 4.21382,3.04183 0.41215,0 3.08575,-2.36578 5.94134,-5.25729 z m -51.74522,-16.94805 c 15.98228,-5.82834 28.08471,-18.35829 33.60743,-34.79465 2.566,-7.63678 2.56185,-24.384672 -0.008,-32.000003 -5.7104,-16.922448 -18.69206,-29.90411 -35.61451,-35.614574 -7.62959,-2.574598 -24.370415,-2.574598 -32.000005,0 -16.63081,5.612053 -28.69598,17.233942 -34.88102,33.599498 -3.25941,8.624363 -3.62856,25.511449 -0.74355,34.015079 6.52276,19.22604 21.63329,32.83944 41.12457,37.05004 6.970105,1.50571 21.312175,0.37133 28.515085,-2.25539 z m -28.015085,-31.29465 0,-19.5 -4,0 -4,0 0,-6.5 0,-6.500003 3.9005,0 3.90051,0 0.34949,-8.896455 c 0.28167,-7.169926 0.73718,-9.324558 2.347145,-11.10238 3.46743,-3.828967 7.60262,-5.257979 16.71942,-5.777795 l 8.78294,-0.500781 0,7.138705 0,7.138706 -4.41821,0 c -7.01332,0 -7.58179,0.495377 -7.58179,6.606989 l 0,5.393011 6.13084,0 6.13084,0 -0.61983,3.75 c -0.34091,2.062503 -0.62479,4.987503 -0.63084,6.500003 -0.0107,2.66533 -0.18034,2.75 -5.51101,2.75 l -5.5,0 0,19.5 0,19.49999 -8,0 -8.000005,0 0,-19.49999 z"
           id="fb"
           style="fill: #C2C76C;
  stroke: #C2C76C;fill-opacity:1;stroke-width:2;stroke-opacity:1;filter:url(#filter7133)" />
        </svg>