<?xml version="1.0" encoding="UTF-8" standalone="no"?>
<!-- Created with Inkscape (http://www.inkscape.org/) -->

<svg
   xmlns:dc="http://purl.org/dc/elements/1.1/"
   xmlns:cc="http://creativecommons.org/ns#"
   xmlns:rdf="http://www.w3.org/1999/02/22-rdf-syntax-ns#"
   xmlns:svg="http://www.w3.org/2000/svg"
   xmlns="http://www.w3.org/2000/svg"
   version="1.1"
   width="50"
   height="50"
   viewBox="0 0 216 216"
   id="svg5916">
  <metadata
     id="metadata5922">
    <rdf:RDF>
      <cc:Work
         rdf:about="">
        <dc:format>image/svg+xml</dc:format>
        <dc:type
           rdf:resource="http://purl.org/dc/dcmitype/StillImage" />
        <dc:title></dc:title>
      </cc:Work>
    </rdf:RDF>
  </metadata>
  <defs
     id="defs5920">
    <filter
       color-interpolation-filters="sRGB"
       id="filter7102">
      <feFlood
         id="feFlood7104"
         flood-opacity="1"
         flood-color="rgb(0,0,0)"
         result="flood" />
      <feComposite
         in2="SourceGraphic"
         operator="in"
         in="flood"
         result="composite1"
         id="feComposite7106" />
      <feGaussianBlur
         id="feGaussianBlur7108"
         stdDeviation="5"
         result="blur" />
      <feOffset
         id="feOffset7110"
         dx="5"
         dy="5"
         result="offset" />
      <feComposite
         in2="offset"
         operator="over"
         in="SourceGraphic"
         result="composite2"
         id="feComposite7112" />
    </filter>
    <filter
       color-interpolation-filters="sRGB"
       id="filter5521">
      <feFlood
         id="feFlood5523"
         flood-opacity="1"
         flood-color="rgb(0,0,0)"
         result="flood" />
      <feComposite
         in2="SourceGraphic"
         operator="in"
         in="flood"
         result="composite1"
         id="feComposite5525" />
      <feGaussianBlur
         id="feGaussianBlur5527"
         stdDeviation="5"
         result="blur" />
      <feOffset
         id="feOffset5529"
         dx="5"
         dy="5"
         result="offset" />
      <feComposite
         in2="offset"
         operator="over"
         in="SourceGraphic"
         result="composite2"
         id="feComposite5531" />
    </filter>
    <filter
       color-interpolation-filters="sRGB"
       id="filter5533">
      <feFlood
         id="feFlood5535"
         flood-opacity="1"
         flood-color="rgb(0,0,0)"
         result="flood" />
      <feComposite
         in2="SourceGraphic"
         operator="in"
         in="flood"
         result="composite1"
         id="feComposite5537" />
      <feGaussianBlur
         id="feGaussianBlur5539"
         stdDeviation="5"
         result="blur" />
      <feOffset
         id="feOffset5541"
         dx="5"
         dy="5"
         result="offset" />
      <feComposite
         in2="offset"
         operator="over"
         in="SourceGraphic"
         result="composite2"
         id="feComposite5543" />
    </filter>
    <filter
       color-interpolation-filters="sRGB"
       id="filter3887">
      <feFlood
         result="flood"
         flood-color="rgb(0,0,0)"
         flood-opacity="1"
         id="feFlood3889" />
      <feComposite
         in2="SourceGraphic"
         operator="in"
         in="flood"
         result="composite1"
         id="feComposite3891" />
      <feGaussianBlur
         result="blur"
         stdDeviation="5"
         id="feGaussianBlur3893" />
      <feOffset
         result="offset"
         dy="5"
         dx="5"
         id="feOffset3895" />
      <feComposite
         in2="offset"
         operator="over"
         in="SourceGraphic"
         result="composite2"
         id="feComposite3897" />
    </filter>
    <filter
       color-interpolation-filters="sRGB"
       id="filter3899">
      <feFlood
         result="flood"
         flood-color="rgb(0,0,0)"
         flood-opacity="1"
         id="feFlood3901" />
      <feComposite
         in2="SourceGraphic"
         operator="in"
         in="flood"
         result="composite1"
         id="feComposite3903" />
      <feGaussianBlur
         result="blur"
         stdDeviation="5"
         id="feGaussianBlur3905" />
      <feOffset
         result="offset"
         dy="5"
         dx="5"
         id="feOffset3907" />
      <feComposite
         in2="offset"
         operator="over"
         in="SourceGraphic"
         result="composite2"
         id="feComposite3909" />
    </filter>
    <filter
       color-interpolation-filters="sRGB"
       id="filter3911">
      <feFlood
         result="flood"
         flood-color="rgb(0,0,0)"
         flood-opacity="1"
         id="feFlood3913" />
      <feComposite
         in2="SourceGraphic"
         operator="in"
         in="flood"
         result="composite1"
         id="feComposite3915" />
      <feGaussianBlur
         result="blur"
         stdDeviation="5"
         id="feGaussianBlur3917" />
      <feOffset
         result="offset"
         dy="5"
         dx="5"
         id="feOffset3919" />
      <feComposite
         in2="offset"
         operator="over"
         in="SourceGraphic"
         result="composite2"
         id="feComposite3921" />
    </filter>
    <filter
       color-interpolation-filters="sRGB"
       id="filter3923">
      <feFlood
         result="flood"
         flood-color="rgb(0,0,0)"
         flood-opacity="1"
         id="feFlood3925" />
      <feComposite
         in2="SourceGraphic"
         operator="in"
         in="flood"
         result="composite1"
         id="feComposite3927" />
      <feGaussianBlur
         result="blur"
         stdDeviation="5"
         id="feGaussianBlur3929" />
      <feOffset
         result="offset"
         dy="5"
         dx="5"
         id="feOffset3931" />
      <feComposite
         in2="offset"
         operator="over"
         in="SourceGraphic"
         result="composite2"
         id="feComposite3933" />
    </filter>
  </defs>
  <path
     d="m 98.621727,202.05354 c -0.719858,-6.36271 -0.700333,-6.3435 -7.628126,-7.50442 -3.470727,-0.5816 -3.590888,-0.48699 -6.239135,4.91268 -1.485138,3.02814 -3.067694,5.50571 -3.516791,5.50571 -0.765439,0 -18.410629,-6.91883 -18.956981,-7.4332 -0.138484,-0.13037 0.419145,-2.44874 1.239176,-5.15192 2.062381,-6.79852 2.032909,-6.90453 -2.6958,-9.69713 l -4.208414,-2.48533 -4.792679,4.04125 -4.792679,4.04125 -6.748907,-6.34676 c -3.711899,-3.49072 -7.146608,-6.68178 -7.632686,-7.09124 -0.486079,-0.40946 0.808934,-3.05042 2.877806,-5.86878 l 3.761586,-5.12431 -3.301214,-4.69191 c -1.815668,-2.58056 -3.374346,-4.80559 -3.46373,-4.94451 -0.08938,-0.13892 -2.785184,0.64974 -5.990669,1.75259 -3.205485,1.10285 -5.940858,1.89151 -6.078608,1.75259 -0.137749,-0.13892 -2.046593,-4.39511 -4.241875,-9.4582 -4.381685,-10.10569 -4.471295,-9.64574 2.570483,-13.1937 2.3375,-1.17774 4.25,-2.38292 4.25,-2.67819 0,-0.29527 -0.424027,-2.42363 -0.942283,-4.72968 -0.518256,-2.30605 -1.196308,-5.40832 -1.506782,-6.89393 -0.516486,-2.47137 -1.077007,-2.7591 -6.590201,-3.38284 L 7.9675158,116.70183 8.25,106.08467 8.5324842,95.467515 l 5.9398548,-0.5 5.939855,-0.5 1.16076,-4.570562 1.16076,-4.570561 -5.350615,-2.894364 c -2.942838,-1.5919 -5.350615,-3.244541 -5.350615,-3.672536 0,-1.696179 7.259011,-18.791977 7.979222,-18.791977 0.423129,0 2.682479,0.675 5.020778,1.5 2.338299,0.825 4.783251,1.5 5.433226,1.5 1.170163,0 7.566774,-8.326103 7.566774,-9.849238 0,-0.43492 -1.644104,-2.711531 -3.653565,-5.059134 l -3.653565,-4.268369 7.565075,-7.565075 7.565074,-7.565074 4.75038,4.0605 4.750379,4.060501 4.088111,-2.615461 c 2.248461,-1.438504 4.201776,-2.672844 4.340701,-2.742978 0.138924,-0.07014 -0.621054,-2.666805 -1.688839,-5.770378 -1.457789,-4.237137 -1.645271,-5.834107 -0.75259,-6.410566 2.376829,-1.534866 16.057444,-7.274728 17.338875,-7.274728 0.72395,0 2.475944,2.288501 3.89332,5.085558 l 2.577047,5.085558 5.189798,-0.699889 c 6.518398,-0.879063 6.689799,-0.99193 6.689799,-4.405244 0,-1.548791 0.28125,-4.222233 0.625,-5.940983 l 0.625,-3.125 10.249996,0 10.25,0 0.625,3.125 c 0.34375,1.71875 0.625,4.546974 0.625,6.284942 0,3.031827 0.21753,3.199792 5.36535,4.142823 l 5.36534,0.98288 2.84958,-5.267822 c 1.56727,-2.897303 3.19976,-5.267823 3.62775,-5.267823 1.69618,0 18.79198,7.259011 18.79198,7.979222 0,0.423129 -0.675,2.682479 -1.5,5.020778 -2.10815,5.97513 -1.98937,6.410376 2.57336,9.429849 l 4.07336,2.695621 3.54011,-2.812735 c 1.94706,-1.547004 4.12663,-3.236832 4.84349,-3.755172 0.93835,-0.678492 3.21712,0.841108 8.13653,5.425851 3.75823,3.502558 6.9781,6.96132 7.15526,7.686138 0.17716,0.724817 -1.31227,3.3124 -3.30985,5.750183 l -3.63197,4.432334 2.99814,4.138799 c 1.64897,2.276339 3.14273,4.572604 3.31946,5.102809 0.1829,0.548708 2.7852,0.116319 6.04051,-1.003672 4.29182,-1.476604 5.91076,-1.670982 6.48687,-0.778844 1.53487,2.376829 7.27473,16.057444 7.27473,17.338875 0,0.72395 -2.30327,2.483427 -5.11837,3.909949 -5.0196,2.54362 -5.10666,2.664566 -4.51101,6.266846 0.33405,2.020243 0.61232,4.460669 0.61837,5.423169 0.008,1.318814 0.84258,1.75 3.38601,1.75 1.85625,0 4.78125,0.28125 6.5,0.625 l 3.125,0.625 0,10.249995 0,10.25 -3.125,0.625 c -1.71875,0.34375 -4.43287,0.625 -6.03138,0.625 -3.07542,0 -3.33539,0.37308 -4.29477,6.16339 -0.60287,3.63862 -0.5696,3.6805 4.92209,6.19467 3.04098,1.39221 5.52906,2.91874 5.52906,3.39229 0,0.79578 -6.90059,18.43571 -7.4332,19.00144 -0.13037,0.13848 -2.44874,-0.41915 -5.15192,-1.23918 -2.70319,-0.82003 -5.41012,-1.49583 -6.0154,-1.50179 -0.60529,-0.006 -2.52498,2.28064 -4.26598,5.08132 l -3.16545,5.09214 3.96398,4.73454 3.96398,4.73453 -7.46027,7.41048 c -5.62268,5.58516 -7.79876,7.16732 -8.83453,6.42332 -0.75585,-0.54293 -2.98033,-2.26281 -4.9433,-3.82194 l -3.56902,-2.83479 -3.79445,2.79434 c -2.08694,1.53689 -3.90811,2.85121 -4.04703,2.92071 -0.13892,0.0695 0.64974,2.74905 1.75259,5.95453 1.10285,3.20548 1.89151,5.94086 1.75259,6.07861 -0.13892,0.13775 -4.39511,2.04659 -9.4582,4.24187 -10.10569,4.38169 -9.64574,4.4713 -13.1937,-2.57048 -2.42344,-4.80989 -1.93069,-4.64257 -8.60069,-2.92057 l -5,1.29086 -0.5,5.93985 -0.5,5.93987 -10.61716,0.28248 -10.617153,0.28248 z m 10.410753,-16.94143 0,-19.85539 -6.25,-0.60365 C 89.464301,163.36675 73.779591,155.21687 64.74429,144.88816 43.001991,120.03345 47.875563,81.175259 75.136204,62.030857 83.815729,55.935464 91.061003,53.0511 101.28248,51.621947 l 7.75,-1.083594 0,-19.842917 0,-19.842917 -4.25,0.307498 -4.25,0.307498 -0.31,5 c -0.17049,2.75 -0.634286,5.328797 -1.030652,5.73066 -0.396366,0.401864 -4.004997,1.351686 -8.019181,2.110716 l -7.298516,1.380056 -2.629142,-5.360716 c -1.446027,-2.948394 -2.94345,-5.360716 -3.327606,-5.360716 -1.680385,0 -13.884899,6.00557 -13.884899,6.83245 0,0.503853 0.675,2.829251 1.5,5.16755 0.825,2.338299 1.5,4.581165 1.5,4.984147 0,0.918942 -10.608142,8.015853 -11.981735,8.015853 -0.556877,0 -2.842824,-1.653585 -5.079882,-3.674632 l -4.067379,-3.674633 -5.587773,5.587774 -5.587774,5.587773 3.652272,4.266858 c 2.008749,2.346771 3.652271,4.614298 3.652271,5.038948 0,1.184584 -9.053599,13.867912 -9.899177,13.867912 -0.4095,0 -2.885285,-0.729423 -5.501744,-1.62094 -2.641411,-0.90002 -5.092063,-1.233586 -5.510119,-0.75 -0.88189,1.020125 -5.08896,11.278935 -5.08896,12.409271 0,0.424394 2.1375,2.005238 4.75,3.512988 2.6125,1.507749 4.91321,2.876219 5.11269,3.041044 0.199479,0.164826 -0.177313,2.686473 -0.837316,5.60366 -2.136139,9.441656 -1.549974,8.803977 -8.092762,8.803977 l -5.932612,0 0,7.901805 0,7.90182 5.859824,0.6801 5.859824,0.68011 1.67387,8.51916 c 0.920628,4.68554 1.771207,9.01223 1.890176,9.61487 0.118968,0.60263 -2.1257,2.37474 -4.988151,3.93801 l -5.204457,2.84232 2.623108,6.2109 c 1.442709,3.41599 2.946269,6.58745 3.341244,7.04769 0.394975,0.46023 3.238623,0.0423 6.319218,-0.9288 3.080594,-0.97107 5.75386,-1.57263 5.94059,-1.33679 0.18673,0.23584 2.269258,3.22258 4.62784,6.6372 l 4.28833,6.20839 -3.57323,4.86772 -3.57323,4.86771 5.382711,5.31585 5.382712,5.31585 4.254809,-3.64196 c 2.340145,-2.00308 4.668678,-3.64196 5.174518,-3.64196 0.50584,0 3.368481,1.4625 6.361426,3.25 5.895022,3.52073 5.782231,3.15036 3.801671,12.48338 -0.661403,3.11674 -0.510412,3.3096 4.185521,5.34612 10.076635,4.37001 9.109306,4.49977 12.113104,-1.62486 l 2.702649,-5.51059 4.044183,0.60646 c 11.299196,1.69442 10.924566,1.4503 11.875246,7.73817 0.85486,5.6541 0.89744,5.71132 4.25,5.71132 l 3.38649,0 z m 68.7603,-9.40189 5.19198,-5.25728 -3.95488,-4.62682 -3.95488,-4.62681 4.409,-6.71283 c 2.42495,-3.69205 4.58269,-6.88651 4.79497,-7.0988 0.21229,-0.21228 1.80711,0.0216 3.54405,0.51976 l 3.15808,0.90572 -0.0497,-41.83138 -0.0497,-41.831388 -3.16797,0.908562 c -1.74246,0.499708 -3.47083,0.908561 -3.84091,0.908561 -0.37007,0 -2.69341,-3.025368 -5.16298,-6.72304 l -4.49012,-6.72304 3.85843,-4.608472 3.85843,-4.608472 -5.23349,-5.168488 c -2.87843,-2.842668 -5.69766,-5.168488 -6.26496,-5.168488 -0.56731,0 -2.21266,1.2375 -3.65634,2.75 l -2.62488,2.75 0.008,67.708165 0.008,67.70817 3.46445,3.04183 c 1.90545,1.67301 3.80167,3.04183 4.21382,3.04183 0.41215,0 3.08575,-2.36578 5.94134,-5.25729 z m -51.74522,-16.94805 c 15.98228,-5.82834 28.08471,-18.3583 33.60743,-34.79466 2.566,-7.63678 2.56185,-24.384664 -0.008,-31.999995 -5.7104,-16.922448 -18.69206,-29.90411 -35.61451,-35.614574 -7.62959,-2.574598 -24.370407,-2.574598 -31.999996,0 -16.630816,5.612053 -28.695978,17.233942 -34.881023,33.599498 -3.259412,8.624363 -3.628554,25.511441 -0.743551,34.015071 6.522766,19.22604 21.633288,32.83945 41.124574,37.05005 6.970096,1.50571 21.312166,0.37133 28.515076,-2.25539 z"
     id="twitter"
     style="fill:#ffffff;fill-opacity:1;stroke:#ffffff;stroke-width:2;stroke-opacity:1;filter:url(#filter3923)" />
  <path
     d="m 86.944772,138.69217 c -3.87359,-0.91591 -7.78388,-4.63312 -8.790473,-8.35644 -0.25056,-0.92681 -0.401079,-9.53387 -0.400052,-22.87604 l 0.0016,-21.390188 0.934865,-2.01794 c 1.20617,-2.60357 3.45886,-4.92453 5.93218,-6.11193 l 1.96421,-0.94298 21.213438,-0.004 21.21344,-0.004 2.39001,1.1616 c 2.78059,1.35144 4.94169,3.79876 6.08554,6.89146 0.71082,1.92191 0.75623,3.29146 0.75623,22.810008 0,19.89067 -0.0336,20.85772 -0.79879,22.95868 -1.06715,2.93025 -3.43464,5.60678 -6.18812,6.99591 l -2.24487,1.13255 -20.23134,0.0662 c -11.505588,0.0377 -20.924258,-0.0976 -21.837928,-0.31364 z m 43.640628,-1.72623 c 2.44303,-1.19003 4.59539,-3.46281 5.77503,-6.09812 0.88737,-1.98242 1.01971,-15.80045 1.13282,-31.560589 C 99.158788,87.742817 106.24441,95.322562 78.737094,96.535458 l -0.171122,0.228814 -0.0229,15.635268 c -0.0269,18.36805 0.029,18.74043 3.32279,22.13754 3.31995,3.4241 2.55237,3.32548 26.131118,3.3574 l 20.62418,0.0279 1.9642,-0.95679 z m 1.48933,-58.726056 5.31185,13.443908 c -7.85889,-19.890301 -1.366,-8.48956 -3.98442,-10.73816 -3.64893,-3.13357 -2.04959,-2.93456 -24.61946,-3.0635 -34.716835,3.539152 -28.204494,2.485146 -1.78412,0.0011 11.00166,0.436831 12.70909,-1.150708 25.07615,0.356652 z"
     id="path4323"
     style="fill:#ffffff;fill-opacity:1;stroke:#ffffff;stroke-width:0.3981787;stroke-opacity:1;filter:url(#filter3911)" />
  <path
     d="m 29.819915,26.152012 a 4.7139831,2.5556145 0 1 1 -9.427966,0 4.7139831,2.5556145 0 1 1 9.427966,0 z"
     transform="matrix(2.6614029,0,0,5.0103465,41.182999,-14.390641)"
     id="path3081"
     style="fill:#000000;fill-opacity:0;stroke:#ffffff;stroke-width:1;stroke-opacity:1;filter:url(#filter3899)" />
  <path
     d="m 29.819915,26.152012 a 4.7139831,2.5556145 0 1 1 -9.427966,0 4.7139831,2.5556145 0 1 1 9.427966,0 z"
     transform="matrix(1.5067465,0,0,2.8365949,70.171724,42.45734)"
     id="path3081-8"
     style="fill:#000000;fill-opacity:0;stroke:#ffffff;stroke-width:1;stroke-opacity:1;filter:url(#filter3887)" />
</svg>
