<?xml version="1.0" encoding="UTF-8" standalone="no"?>
<!-- Generator: Adobe Illustrator 15.0.0, SVG Export Plug-In . SVG Version: 6.00 Build 0)  -->

<svg
   xmlns:dc="http://purl.org/dc/elements/1.1/"
   xmlns:cc="http://creativecommons.org/ns#"
   xmlns:rdf="http://www.w3.org/1999/02/22-rdf-syntax-ns#"
   xmlns:svg="http://www.w3.org/2000/svg"
   xmlns="http://www.w3.org/2000/svg"
   xmlns:sodipodi="http://sodipodi.sourceforge.net/DTD/sodipodi-0.dtd"
   xmlns:inkscape="http://www.inkscape.org/namespaces/inkscape"
   version="1.1"
   x="0px"
   y="0px"
   width="90"
   height="90"
   viewBox="0 0 90 90"
   enable-background="new 0 0 2474 2032"
   xml:space="preserve"
   id="svg3769"
   inkscape:version="0.48.4 r9939"
   sodipodi:docname="q.svg"><metadata
     id="metadata4103"><rdf:RDF><cc:Work
         rdf:about=""><dc:format>image/svg+xml</dc:format><dc:type
           rdf:resource="http://purl.org/dc/dcmitype/StillImage" /><dc:title></dc:title></cc:Work></rdf:RDF></metadata><defs
     id="defs4101" /><sodipodi:namedview
     pagecolor="#000000"
     bordercolor="#666666"
     borderopacity="1"
     objecttolerance="10"
     gridtolerance="10"
     guidetolerance="10"
     inkscape:pageopacity="0.09803922"
     inkscape:pageshadow="2"
     inkscape:window-width="1600"
     inkscape:window-height="845"
     id="namedview4099"
     showgrid="false"
     inkscape:zoom="2.5551181"
     inkscape:cx="-24.261835"
     inkscape:cy="76.090497"
     inkscape:window-x="0"
     inkscape:window-y="27"
     inkscape:window-maximized="1"
     inkscape:current-layer="Layer_1" /><g
     id="Background"
     display="none"
     style="display:none"
     transform="translate(0,-1942)"><rect
       x="-292"
       y="-110"
       display="inline"
       clip-rule="evenodd"
       width="2960"
       height="2348"
       id="rect3772"
       style="display:inline" /><path
       display="inline"
       clip-rule="evenodd"
       d="m 4.693,610.18 c 0,228.687 160.517,414.074 358.525,414.074 198.003,0 358.522,-185.387 358.522,-414.074 C 721.74,381.493 561.221,196.106 363.218,196.106 165.21,196.105 4.693,381.493 4.693,610.18 z"
       id="path3774"
       inkscape:connector-curvature="0"
       style="display:inline" /></g><g
     id="Text"
     transform="translate(0,-1942)" /><g
     id="Layer_1"
     transform="translate(-532.26502,-2230.0493)"
     style="opacity:0.8"><g
       id="g3802"
       transform="matrix(0.11838365,0,0,0.11838365,478.3567,2177.1246)"
       style="fill:#000000;fill-opacity:1"><g
         id="g3804"
         style="fill:#000000;fill-opacity:1"><g
           id="g3810"
           style="fill:#000000;fill-opacity:1" /><g
           id="g3814"
           style="fill:#000000;fill-opacity:1" /><g
           id="g3818"
           style="fill:#000000;fill-opacity:1"><radialGradient
             id="SVGID_1_"
             cx="1588.3701"
             cy="802.53998"
             r="29.965599"
             gradientTransform="matrix(0.5004,0,0,0.7073,480.9236,176.5604)"
             gradientUnits="userSpaceOnUse"><stop
               offset="0"
               style="stop-color:#58595B"
               id="stop3821" /><stop
               offset="0.5948"
               style="stop-color:#212122"
               id="stop3823" /><stop
               offset="1"
               style="stop-color:#000000"
               id="stop3825" /></radialGradient><radialGradient
             id="SVGID_2_"
             cx="1610.0117"
             cy="802.54883"
             r="28.689501"
             gradientTransform="matrix(0.5004,0,0,0.7073,480.9236,176.5604)"
             gradientUnits="userSpaceOnUse"><stop
               offset="0"
               style="stop-color:#58595B"
               id="stop3830" /><stop
               offset="0.5948"
               style="stop-color:#212122"
               id="stop3832" /><stop
               offset="1"
               style="stop-color:#000000"
               id="stop3834" /></radialGradient><radialGradient
             id="SVGID_3_"
             cx="1624.8242"
             cy="802.56201"
             r="28.677401"
             gradientTransform="matrix(0.5004,0,0,0.7073,480.9236,176.5604)"
             gradientUnits="userSpaceOnUse"><stop
               offset="0"
               style="stop-color:#58595B"
               id="stop3839" /><stop
               offset="0.5948"
               style="stop-color:#212122"
               id="stop3841" /><stop
               offset="1"
               style="stop-color:#000000"
               id="stop3843" /></radialGradient><radialGradient
             id="SVGID_4_"
             cx="1225.5493"
             cy="762.35638"
             r="19.3004"
             gradientTransform="matrix(1.0092,0,0,1.0149,-7.0083,-10.2808)"
             gradientUnits="userSpaceOnUse"><stop
               offset="0"
               style="stop-color:#58595B"
               id="stop3848" /><stop
               offset="0.5948"
               style="stop-color:#212122"
               id="stop3850" /><stop
               offset="1"
               style="stop-color:#000000"
               id="stop3852" /></radialGradient><radialGradient
             id="SVGID_5_"
             cx="1214.8247"
             cy="737.74219"
             r="3.1326001"
             gradientTransform="matrix(1.0092,0,0,1.0149,-7.0083,-10.2808)"
             gradientUnits="userSpaceOnUse"><stop
               offset="0"
               style="stop-color:#58595B"
               id="stop3857" /><stop
               offset="0.5948"
               style="stop-color:#212122"
               id="stop3859" /><stop
               offset="1"
               style="stop-color:#000000"
               id="stop3861" /></radialGradient><radialGradient
             id="SVGID_6_"
             cx="1724.5684"
             cy="834.59027"
             r="32.073898"
             gradientTransform="matrix(0.5004,0,0,0.7073,480.9236,176.5604)"
             gradientUnits="userSpaceOnUse"><stop
               offset="0"
               style="stop-color:#58595B"
               id="stop3866" /><stop
               offset="0.5948"
               style="stop-color:#212122"
               id="stop3868" /><stop
               offset="1"
               style="stop-color:#000000"
               id="stop3870" /></radialGradient><radialGradient
             id="SVGID_7_"
             cx="1209.2324"
             cy="742.75293"
             r="2.3701999"
             gradientTransform="matrix(1.0092,0,0,1.0149,-7.0083,-10.2808)"
             gradientUnits="userSpaceOnUse"><stop
               offset="0"
               style="stop-color:#58595B"
               id="stop3875" /><stop
               offset="0.5948"
               style="stop-color:#212122"
               id="stop3877" /><stop
               offset="1"
               style="stop-color:#000000"
               id="stop3879" /></radialGradient><radialGradient
             id="SVGID_8_"
             cx="1202.8379"
             cy="748.5625"
             r="3.0676"
             gradientTransform="matrix(1.0092,0,0,1.0149,-7.0083,-10.2808)"
             gradientUnits="userSpaceOnUse"><stop
               offset="0"
               style="stop-color:#58595B"
               id="stop3884" /><stop
               offset="0.5948"
               style="stop-color:#212122"
               id="stop3886" /><stop
               offset="1"
               style="stop-color:#000000"
               id="stop3888" /></radialGradient><radialGradient
             id="SVGID_9_"
             cx="1201.7314"
             cy="747.84027"
             r="2.2316"
             gradientTransform="matrix(1.0092,0,0,1.0149,-7.0083,-10.2808)"
             gradientUnits="userSpaceOnUse"><stop
               offset="0"
               style="stop-color:#58595B"
               id="stop3893" /><stop
               offset="0.5948"
               style="stop-color:#212122"
               id="stop3895" /><stop
               offset="1"
               style="stop-color:#000000"
               id="stop3897" /></radialGradient><radialGradient
             id="SVGID_10_"
             cx="1216.438"
             cy="770.45563"
             r="21.625999"
             gradientTransform="matrix(1.0092,0,0,1.0149,-7.0083,-10.2808)"
             gradientUnits="userSpaceOnUse"><stop
               offset="0"
               style="stop-color:#58595B"
               id="stop3902" /><stop
               offset="0.5948"
               style="stop-color:#212122"
               id="stop3904" /><stop
               offset="1"
               style="stop-color:#000000"
               id="stop3906" /></radialGradient><radialGradient
             id="SVGID_11_"
             cx="1809.4141"
             cy="916.91211"
             r="31.9771"
             gradientTransform="matrix(0.5004,0,0,0.7073,480.9236,176.5604)"
             gradientUnits="userSpaceOnUse"><stop
               offset="0"
               style="stop-color:#58595B"
               id="stop3911" /><stop
               offset="0.5948"
               style="stop-color:#212122"
               id="stop3913" /><stop
               offset="1"
               style="stop-color:#000000"
               id="stop3915" /></radialGradient><radialGradient
             id="SVGID_12_"
             cx="1156.5303"
             cy="818.47119"
             r="3.3045001"
             gradientTransform="matrix(1.0092,0,0,1.0149,-7.0083,-10.2808)"
             gradientUnits="userSpaceOnUse"><stop
               offset="0"
               style="stop-color:#58595B"
               id="stop3920" /><stop
               offset="0.5948"
               style="stop-color:#212122"
               id="stop3922" /><stop
               offset="1"
               style="stop-color:#000000"
               id="stop3924" /></radialGradient><radialGradient
             id="SVGID_13_"
             cx="1175.5977"
             cy="829.76562"
             r="19.7691"
             gradientTransform="matrix(1.0092,0,0,1.0149,-7.0083,-10.2808)"
             gradientUnits="userSpaceOnUse"><stop
               offset="0"
               style="stop-color:#58595B"
               id="stop3929" /><stop
               offset="0.5948"
               style="stop-color:#212122"
               id="stop3931" /><stop
               offset="1"
               style="stop-color:#000000"
               id="stop3933" /></radialGradient><radialGradient
             id="SVGID_14_"
             cx="1160.4253"
             cy="808.95801"
             r="2.6700001"
             gradientTransform="matrix(1.0092,0,0,1.0149,-7.0083,-10.2808)"
             gradientUnits="userSpaceOnUse"><stop
               offset="0"
               style="stop-color:#58595B"
               id="stop3938" /><stop
               offset="0.5948"
               style="stop-color:#212122"
               id="stop3940" /><stop
               offset="1"
               style="stop-color:#000000"
               id="stop3942" /></radialGradient><radialGradient
             id="SVGID_15_"
             cx="1816.9316"
             cy="929.85162"
             r="32.1222"
             gradientTransform="matrix(0.5004,0,0,0.7073,480.9236,176.5604)"
             gradientUnits="userSpaceOnUse"><stop
               offset="0"
               style="stop-color:#58595B"
               id="stop3947" /><stop
               offset="0.5948"
               style="stop-color:#212122"
               id="stop3949" /><stop
               offset="1"
               style="stop-color:#000000"
               id="stop3951" /></radialGradient><radialGradient
             id="SVGID_16_"
             cx="1361.2695"
             cy="1036.8633"
             r="29.841999"
             gradientTransform="matrix(0.5004,0,0,0.7073,480.9236,176.5604)"
             gradientUnits="userSpaceOnUse"><stop
               offset="0"
               style="stop-color:#58595B"
               id="stop3956" /><stop
               offset="0.5948"
               style="stop-color:#212122"
               id="stop3958" /><stop
               offset="1"
               style="stop-color:#000000"
               id="stop3960" /></radialGradient><radialGradient
             id="SVGID_17_"
             cx="1845.4912"
             cy="1044.7324"
             r="28.685499"
             gradientTransform="matrix(0.5004,0,0,0.7073,480.9236,176.5604)"
             gradientUnits="userSpaceOnUse"><stop
               offset="0"
               style="stop-color:#58595B"
               id="stop3965" /><stop
               offset="0.5948"
               style="stop-color:#212122"
               id="stop3967" /><stop
               offset="1"
               style="stop-color:#000000"
               id="stop3969" /></radialGradient><radialGradient
             id="SVGID_18_"
             cx="1361.2812"
             cy="1058.9043"
             r="28.553101"
             gradientTransform="matrix(0.5004,0,0,0.7073,480.9236,176.5604)"
             gradientUnits="userSpaceOnUse"><stop
               offset="0"
               style="stop-color:#58595B"
               id="stop3974" /><stop
               offset="0.5948"
               style="stop-color:#212122"
               id="stop3976" /><stop
               offset="1"
               style="stop-color:#000000"
               id="stop3978" /></radialGradient><radialGradient
             id="SVGID_19_"
             cx="1845.4668"
             cy="1058.8301"
             r="28.6859"
             gradientTransform="matrix(0.5004,0,0,0.7073,480.9236,176.5604)"
             gradientUnits="userSpaceOnUse"><stop
               offset="0"
               style="stop-color:#58595B"
               id="stop3983" /><stop
               offset="0.5948"
               style="stop-color:#212122"
               id="stop3985" /><stop
               offset="1"
               style="stop-color:#000000"
               id="stop3987" /></radialGradient><radialGradient
             id="SVGID_20_"
             cx="1379.2422"
             cy="1140.3018"
             r="32.051701"
             gradientTransform="matrix(0.5004,0,0,0.7073,480.9236,176.5604)"
             gradientUnits="userSpaceOnUse"><stop
               offset="0"
               style="stop-color:#58595B"
               id="stop3992" /><stop
               offset="0.5948"
               style="stop-color:#212122"
               id="stop3994" /><stop
               offset="1"
               style="stop-color:#000000"
               id="stop3996" /></radialGradient><radialGradient
             id="SVGID_21_"
             cx="1820.5449"
             cy="1152.5615"
             r="32.066399"
             gradientTransform="matrix(0.5004,0,0,0.7073,480.9236,176.5604)"
             gradientUnits="userSpaceOnUse"><stop
               offset="0"
               style="stop-color:#58595B"
               id="stop4001" /><stop
               offset="0.5948"
               style="stop-color:#212122"
               id="stop4003" /><stop
               offset="1"
               style="stop-color:#000000"
               id="stop4005" /></radialGradient><radialGradient
             id="SVGID_22_"
             cx="1386.2998"
             cy="1153.0645"
             r="31.893101"
             gradientTransform="matrix(0.5004,0,0,0.7073,480.9236,176.5604)"
             gradientUnits="userSpaceOnUse"><stop
               offset="0"
               style="stop-color:#58595B"
               id="stop4010" /><stop
               offset="0.5948"
               style="stop-color:#212122"
               id="stop4012" /><stop
               offset="1"
               style="stop-color:#000000"
               id="stop4014" /></radialGradient><radialGradient
             id="SVGID_23_"
             cx="1393.6855"
             cy="1165.5137"
             r="32.058701"
             gradientTransform="matrix(0.5004,0,0,0.7073,480.9236,176.5604)"
             gradientUnits="userSpaceOnUse"><stop
               offset="0"
               style="stop-color:#58595B"
               id="stop4019" /><stop
               offset="0.5948"
               style="stop-color:#212122"
               id="stop4021" /><stop
               offset="1"
               style="stop-color:#000000"
               id="stop4023" /></radialGradient><radialGradient
             id="SVGID_24_"
             cx="1812.2363"
             cy="1177.25"
             r="33.0429"
             gradientTransform="matrix(0.5004,0,0,0.7073,480.9236,176.5604)"
             gradientUnits="userSpaceOnUse"><stop
               offset="0"
               style="stop-color:#58595B"
               id="stop4028" /><stop
               offset="0.5948"
               style="stop-color:#212122"
               id="stop4030" /><stop
               offset="1"
               style="stop-color:#000000"
               id="stop4032" /></radialGradient><radialGradient
             id="SVGID_25_"
             cx="1402.252"
             cy="1190.3516"
             r="33.0051"
             gradientTransform="matrix(0.5004,0,0,0.7073,480.9236,176.5604)"
             gradientUnits="userSpaceOnUse"><stop
               offset="0"
               style="stop-color:#58595B"
               id="stop4037" /><stop
               offset="0.5948"
               style="stop-color:#212122"
               id="stop4039" /><stop
               offset="1"
               style="stop-color:#000000"
               id="stop4041" /></radialGradient><radialGradient
             id="SVGID_26_"
             cx="1463.0527"
             cy="1242.9551"
             r="32.068901"
             gradientTransform="matrix(0.5004,0,0,0.7073,480.9236,176.5604)"
             gradientUnits="userSpaceOnUse"><stop
               offset="0"
               style="stop-color:#58595B"
               id="stop4046" /><stop
               offset="0.5948"
               style="stop-color:#212122"
               id="stop4048" /><stop
               offset="1"
               style="stop-color:#000000"
               id="stop4050" /></radialGradient><radialGradient
             id="SVGID_27_"
             cx="1475.9844"
             cy="1250.2852"
             r="31.968399"
             gradientTransform="matrix(0.5004,0,0,0.7073,480.9236,176.5604)"
             gradientUnits="userSpaceOnUse"><stop
               offset="0"
               style="stop-color:#58595B"
               id="stop4055" /><stop
               offset="0.5948"
               style="stop-color:#212122"
               id="stop4057" /><stop
               offset="1"
               style="stop-color:#000000"
               id="stop4059" /></radialGradient><radialGradient
             id="SVGID_28_"
             cx="1729.7686"
             cy="1256.8613"
             r="33.0056"
             gradientTransform="matrix(0.5004,0,0,0.7073,480.9236,176.5604)"
             gradientUnits="userSpaceOnUse"><stop
               offset="0"
               style="stop-color:#58595B"
               id="stop4064" /><stop
               offset="0.5948"
               style="stop-color:#212122"
               id="stop4066" /><stop
               offset="1"
               style="stop-color:#000000"
               id="stop4068" /></radialGradient><radialGradient
             id="SVGID_29_"
             cx="1489.4219"
             cy="1264.2529"
             r="33.208099"
             gradientTransform="matrix(0.5004,0,0,0.7073,480.9236,176.5604)"
             gradientUnits="userSpaceOnUse"><stop
               offset="0"
               style="stop-color:#58595B"
               id="stop4073" /><stop
               offset="0.5948"
               style="stop-color:#212122"
               id="stop4075" /><stop
               offset="1"
               style="stop-color:#000000"
               id="stop4077" /></radialGradient><radialGradient
             id="SVGID_30_"
             cx="1611.3486"
             cy="1285.8164"
             r="30.4293"
             gradientTransform="matrix(0.5004,0,0,0.7073,480.9236,176.5604)"
             gradientUnits="userSpaceOnUse"><stop
               offset="0"
               style="stop-color:#58595B"
               id="stop4082" /><stop
               offset="0.5948"
               style="stop-color:#212122"
               id="stop4084" /><stop
               offset="1"
               style="stop-color:#000000"
               id="stop4086" /></radialGradient><radialGradient
             id="SVGID_31_"
             cx="1589.5859"
             cy="1286.7412"
             r="28.5585"
             gradientTransform="matrix(0.5004,0,0,0.7073,480.9236,176.5604)"
             gradientUnits="userSpaceOnUse"><stop
               offset="0"
               style="stop-color:#58595B"
               id="stop4091" /><stop
               offset="0.5948"
               style="stop-color:#212122"
               id="stop4093" /><stop
               offset="1"
               style="stop-color:#000000"
               id="stop4095" /></radialGradient><path
             id="path4097"
             d="m 831.97319,908.86041 c 0.226,1.663 -1.483,0.596 -1.513,1.899 -0.6,10.523 -0.336,25.381 -0.336,38.016 0,4.688 -0.672,12.154 1.008,14.02 0.307,0.34 1.146,0.086 0.841,1.188 -1.577,0.939 -5.036,0.481 -6.891,0.236 -0.11,-1.241 1.216,-1.632 1.513,-2.611 0.242,-0.798 0.12,-3.121 0.167,-4.516 0.308,-9.047 0.169,-23.505 0.169,-34.689 0,-4.022 0.303,-8.667 -0.336,-10.93 -0.243,-0.857 -1.467,-1.887 -1.513,-2.612 1.525,-0.79 5.366,-0.79 6.891,-10e-4 z m 7.564,-1.901 c 1.709,11.97 3.01,26.934 4.371,39.916 0.479,4.583 0.528,9.398 1.344,13.306 0.262,1.26 1.066,2.393 1.177,3.802 -1.354,0.938 -4.587,0.483 -6.22,0.236 -0.206,-1.875 1.381,-1.215 1.513,-2.611 -0.653,-12.621 -2.171,-24.018 -3.36,-35.879 -0.568,4.631 -1.227,10.449 -1.85,16.396 -0.604,5.769 -1.628,11.946 -1.514,16.631 0.02,0.724 0.174,1.792 0.338,2.378 0.354,1.265 1.204,1.576 1.512,2.85 -0.746,0.928 -3.348,0.49 -4.369,0.236 -0.133,-1.48 0.88,-2.581 1.176,-3.801 0.905,-3.729 1.229,-8.621 1.682,-13.067 1.312,-12.902 2.635,-27.097 4.201,-39.679 -10e-4,-0.239 -10e-4,-0.476 -10e-4,-0.714 z m -70.594,33.502 c -0.919,0.4 -2.876,-1.775 -3.865,-2.852 3.459,-2.968 5.84,-7.994 8.572,-12.83 5.893,-10.438 11.926,-21.646 18.153,-31.602 -3.56,12.394 -7.047,25.143 -10.758,38.252 -1.547,5.469 -3.611,10.373 -3.697,16.396 -0.913,-0.646 -2.031,-1.566 -3.025,-2.376 -0.942,-0.77 -2.406,-1.353 -2.354,-2.854 0.247,-1.052 1.307,0.321 1.849,-0.473 2.33,-4.772 3.624,-10.742 5.211,-16.396 1.606,-5.725 3.429,-11.502 4.874,-17.107 0.032,-0.191 0.168,-0.237 0.168,-0.474 -3.621,6.376 -8.109,14.038 -12.102,21.384 -1.072,1.973 -3.314,5.564 -3.361,7.84 -0.032,1.496 0.972,2.069 0.335,3.092 z m 122.025,-35.403 c 1.656,5.562 3.224,11.513 4.875,17.345 1.619,5.723 2.84,11.984 5.714,16.155 0.544,0.793 1.649,-0.642 1.682,0.714 -0.159,1.561 -2.607,3.085 -3.698,3.325 -0.83,-9.802 -4.596,-20.3 -7.059,-29.222 -2.419,-8.756 -4.767,-16.975 -6.893,-25.425 5.913,10.22 12.086,21.124 18.153,32.077 2.552,4.606 4.56,9.872 8.067,12.592 -1.463,1.894 -3.779,3.845 -5.547,4.515 -0.837,-1.211 0.496,-1.292 0.504,-2.612 -1.94,-5.451 -4.777,-10.117 -7.395,-14.732 -2.725,-4.807 -5.391,-9.627 -8.067,-14.492 -0.144,0.042 -0.159,-0.094 -0.169,-0.239 -0.054,-10e-4 -0.11,-10e-4 -0.167,-10e-4 z m -106.562,-15.681 c -0.295,1.053 -0.774,0.368 -1.68,0.477 -3.588,5.844 -6.261,13.719 -9.581,21.619 -2.184,5.197 -4.339,10.922 -6.723,16.871 -0.797,1.988 -2.082,4.063 -2.017,5.938 0.05,1.429 0.831,1.606 0.673,2.613 -0.918,0.749 -2.313,-0.794 -3.362,-1.662 -1.033,-0.854 -2.664,-1.742 -2.689,-3.091 0.09,-1.42 0.716,-0.086 1.344,-0.236 2.156,-2.678 3.638,-6.607 5.211,-10.453 3.062,-7.488 5.802,-14.768 9.076,-22.811 1.254,-3.08 4.389,-7.971 4.201,-11.642 -0.074,-1.465 -1.081,-1.5 -0.503,-2.614 0.136,-0.043 0.167,-0.239 0.335,-0.237 1.808,1.732 4.752,3.093 5.715,5.228 z m -12.437,-10.453 c 1.129,0.616 2.411,1.458 3.53,2.375 0.894,0.729 2.06,1.6 2.521,2.851 -0.388,0.897 -0.789,0.56 -1.513,0.237 -2.308,2.778 -3.721,6.805 -5.21,10.454 -1.536,3.765 -3.011,7.606 -4.538,11.405 -3.013,7.495 -6.571,14.857 -8.909,23.046 0.017,1.222 1.218,1.301 0.673,2.614 -1.091,0.339 -2.158,-1.324 -3.193,-2.139 -1.117,-0.879 -2.517,-1.365 -2.858,-2.613 0.001,-1.443 0.789,-0.729 1.345,-0.475 3.908,-5.609 6.47,-13.784 9.748,-21.859 2.151,-5.297 4.701,-10.934 7.06,-16.87 0.727,-1.827 1.926,-4.575 1.849,-6.178 -0.063,-1.304 -1.217,-1.747 -0.505,-2.848 z m -29.75,-21.623 c -4.013,2.273 -8.25,4.613 -12.437,6.891 -4.066,2.209 -8.44,4.121 -11.43,8.078 -0.349,1.058 0.278,2.095 -0.504,2.612 -1.178,-1.122 -2.101,-3.813 -2.353,-5.464 6.902,-1.205 14.407,-6.434 20.673,-9.979 6.184,-3.498 12.047,-6.645 17.984,-9.741 -9.858,12.044 -20.766,22.599 -30.59,34.688 -0.208,0.977 -0.362,2.023 -1.008,2.375 -1.278,-2.153 -2.662,-5.423 -3.194,-7.838 0.863,-1.181 1.103,0.629 2.017,0.712 7.597,-6.526 13.883,-14.906 20.842,-22.334 z m 212.114,14.969 c -0.236,1.593 -1.264,4.055 -2.185,5.465 -0.8,-0.354 -0.909,-1.749 -1.345,-2.613 -1.684,-3.354 -4.827,-6.163 -7.396,-9.029 -7.571,-8.449 -15.552,-17.273 -22.69,-25.898 12.352,6.459 24.001,13.909 36.473,20.195 0.809,-0.358 1.311,-0.545 2.018,0 -0.266,1.603 -0.978,2.979 -1.514,4.278 -0.52,1.263 -0.898,2.898 -1.848,3.563 -0.744,-0.418 -0.32,-1.178 -0.337,-2.375 -3.157,-3.623 -7.421,-5.318 -11.429,-7.605 -4.089,-2.33 -8.104,-4.732 -12.27,-6.889 -0.137,-0.046 -0.168,-0.238 -0.336,-0.238 4.369,5.061 9.77,11.312 14.791,16.87 1.416,1.568 3.993,4.662 5.546,4.752 1.205,0.069 1.661,-1.278 2.522,-0.476 z m -208.416,-39.678 c 1.242,2.609 2.916,5.845 3.361,8.79 -0.964,0.819 -0.998,-0.907 -1.849,-0.951 -8.46,5.47 -16.115,12.599 -24.203,19.009 -2.577,2.042 -5.469,3.845 -7.396,7.128 -0.615,0.712 0.696,1.78 -0.168,2.14 -1.262,0.311 -1.608,-2.387 -2.185,-3.803 -0.657,-1.612 -1.714,-3.081 -1.681,-4.516 0.774,-1.021 0.984,0.61 1.849,0.715 2.299,0.279 6.704,-4.549 8.404,-5.941 2.815,-2.303 5.514,-4.467 7.9,-6.414 5.702,-4.652 11.271,-8.427 15.463,-13.545 -0.028,-1.454 -0.354,-2.192 0.505,-2.612 z m -0.504,0 c -0.672,0.402 -0.714,-0.826 -1.513,-0.952 -2.344,-0.369 -6.722,4.577 -8.404,5.94 -7.781,6.313 -16.692,12.832 -23.362,19.721 -0.418,1.205 0.61,2.02 -0.337,2.613 -1.02,-0.255 -1.383,-2.493 -2.017,-4.039 -0.593,-1.447 -1.743,-2.996 -1.513,-4.514 0.892,-1.066 0.808,0.736 1.681,0.95 8.538,-5.423 16.273,-12.536 24.204,-19.007 2.602,-2.125 5.473,-3.777 7.563,-6.891 0.417,-1.205 -0.61,-2.02 0.336,-2.615 0.167,0 0.335,0 0.504,0 0.659,3.083 3.216,5.837 2.858,8.794 z m 184.046,-8.793 c 0.383,0.568 -0.369,0.876 -0.169,1.902 1.821,3.109 4.703,5.168 7.396,7.365 6.464,5.272 12.994,10.688 19.834,16.156 1.334,1.068 3.104,2.742 4.369,2.612 1.007,-0.101 1.039,-1.432 1.682,-0.712 0.812,0.951 -0.596,2.874 -1.177,4.277 -0.69,1.668 -1.22,3.639 -1.849,4.276 -1.166,-0.188 -0.546,-0.804 -0.504,-2.139 -1.87,-3.138 -4.717,-5.194 -7.396,-7.364 -5.266,-4.268 -10.153,-8.211 -15.799,-12.832 -2.136,-1.748 -6.076,-6.002 -8.235,-5.938 -0.989,0.028 -1.442,1.284 -2.186,0.712 0.372,-2.969 2.283,-5.792 3.194,-8.791 0.319,0.103 0.422,0.513 0.84,0.476 z m -187.407,-0.475 c -0.939,1.133 -0.896,-0.61 -1.849,-0.712 -5.802,3.292 -11.053,7.995 -16.305,12.354 -5.25,4.36 -10.769,8.172 -15.462,13.543 -0.176,1.112 0.495,1.953 -0.168,2.377 -1.086,0.024 -1.583,-2.365 -2.185,-3.803 -0.644,-1.541 -1.523,-3.125 -1.513,-4.514 0.904,-1.252 0.84,0.805 1.849,0.713 5.848,-3.227 10.983,-8.276 16.304,-12.594 2.669,-2.164 5.384,-4.219 8.068,-6.415 2.544,-2.081 5.387,-3.976 7.395,-7.128 0.261,-0.94 -0.635,-1.451 -0.168,-1.9 0.136,-0.204 0.46,-0.141 0.505,-0.475 1.428,2.345 2.854,5.932 3.529,8.554 z m 234.133,-52.983 c 0.665,2.229 0.34,7.118 0.168,9.741 -0.893,0.459 -1.111,-1.744 -1.682,-2.139 -1.612,-1.119 -5.977,-0.476 -8.908,-0.476 -6.112,0 -11.766,0 -18.152,0 -2.98,0 -7.033,-0.669 -8.74,0.476 -0.518,0.349 -1.196,2.298 -1.68,2.139 -0.914,-0.518 -0.506,-2.658 -0.506,-4.277 0,-1.613 0,-3.426 0,-4.752 -0.047,-0.384 0.159,-0.408 0.168,-0.712 1.451,-0.548 0.772,1.919 1.682,2.139 7.483,0.845 17.969,0.475 26.893,0.475 2.906,0 7.189,0.604 9.076,-0.475 0.904,-0.519 0.673,-1.838 1.681,-2.139 z m -242.37,0 c 0.666,2.229 0.342,7.118 0.169,9.741 -0.836,0.276 -1.125,-1.712 -1.681,-2.139 -1.528,-1.172 -5.881,-0.476 -8.74,-0.476 -6.103,0 -11.811,0 -17.984,0 -3.381,0 -8.53,-1.002 -9.917,1.188 -0.42,0.664 -0.018,2.09 -0.84,1.426 -0.776,-2.309 -0.118,-6.645 -0.336,-9.741 0.919,-0.566 1.322,1.927 2.185,2.375 2,1.042 5.744,0.238 8.909,0.238 6.073,0 11.756,0 17.984,0 2.986,0 6.969,0.683 8.572,-0.475 0.631,-0.456 0.95,-1.984 1.679,-2.137 z m 203.206,-9.98 c 0.851,-0.305 1.111,1.758 1.682,2.139 1.637,1.095 5.901,0.475 8.74,0.475 6.006,0 12.02,0 18.152,0 3.131,0 6.537,0.537 8.572,-0.475 0.674,-0.336 1.438,-2.027 2.018,-2.139 0.557,2.156 0.557,7.585 0,9.742 -1.164,0.299 -0.497,-1.992 -1.346,-2.14 -7.453,-0.844 -17.957,-0.474 -26.893,-0.474 -2.834,0 -6.851,-0.869 -8.908,0.236 -0.889,0.477 -1.003,1.824 -1.848,2.377 -0.891,-1.341 -0.506,-6.494 -0.506,-9.029 0,-0.337 -0.038,-0.673 0.168,-0.713 0.058,10e-4 0.114,10e-4 0.169,10e-4 z m -203.71,-10.691 c 0.28,0 0.561,0 0.841,0 -0.112,2.932 0.224,6.494 -0.168,9.029 -1.056,0.178 -1.321,-1.383 -2.186,-1.664 -1.831,-0.593 -4.64,0.932 -6.891,1.664 -2.397,0.78 -4.677,1.499 -6.555,2.138 2.878,0.632 7.548,3.67 11.093,4.039 0.787,0.082 1.823,0.153 2.521,-0.239 0.876,-0.488 0.792,-1.741 1.849,-2.137 0.66,1.367 0.346,5.37 0.169,7.127 -1.046,0.302 -1.539,-1.506 -2.353,-2.137 -1.92,-1.488 -5.054,-2.06 -7.733,-3.09 -2.64,-1.016 -5.426,-2.879 -7.731,-2.852 -1.464,0.019 -3.128,1.134 -4.874,1.664 -1.592,0.482 -3.303,0.918 -4.875,1.424 -3.387,1.094 -7.07,1.629 -9.58,3.09 -0.643,0.375 -1.268,1.648 -2.017,1.426 -0.664,-2.072 -0.342,-6.801 -0.167,-9.267 1.269,-0.448 0.691,1.716 1.512,1.901 4.662,0.137 8.778,-2.453 13.278,-3.327 -3.222,-0.699 -8.369,-4.638 -12.438,-3.326 -0.995,0.321 -1.18,1.541 -2.185,1.9 -0.659,-1.288 -0.345,-5.21 -0.167,-6.891 1.193,-0.261 1.054,1.362 1.68,1.901 3.63,1.795 7.471,2.879 11.431,4.277 1.169,0.413 2.615,1.382 3.697,1.426 1.281,0.052 3.373,-1.06 5.21,-1.663 4.522,-1.483 11.281,-2.919 15.127,-4.989 0.697,-0.375 1.017,-0.881 1.512,-1.424 z m 224.384,-83.873 c 1.147,2.657 2.734,5.956 3.361,8.554 -0.863,1.179 -1.102,-0.63 -2.016,-0.713 -5.74,3.369 -10.834,8.291 -16.137,12.592 -5.236,4.25 -10.779,7.991 -15.462,13.305 -0.081,1.289 0.463,2.185 -0.337,2.614 -1.072,-0.742 -1.398,-2.785 -2.017,-4.276 -0.581,-1.399 -1.618,-2.746 -1.513,-4.277 0.75,-0.906 0.922,0.634 1.849,0.713 2.175,0.187 6.675,-4.524 8.404,-5.94 2.83,-2.316 5.485,-4.68 7.899,-6.653 5.694,-4.652 11.45,-8.099 15.463,-13.542 0.201,-1.026 -0.551,-1.332 -0.168,-1.901 0.315,-0.033 0.564,-0.157 0.674,-0.476 z m -240.519,-8.315 c -0.231,0.01 -0.37,-0.112 -0.504,-0.237 -0.725,2.144 -1.766,3.84 -2.353,6.178 0.913,0.827 1.351,-0.341 2.353,-0.238 0.199,0.021 0.401,0.08 0.607,0.162 0.368,-0.767 0.74,-1.531 1.119,-2.292 -0.243,-0.401 -0.485,-0.801 -0.717,-1.195 -0.319,-0.583 -0.01,-2.053 -0.505,-2.378 z m 5.042,10.929 c 1.751,2.34 3.461,4.616 4.371,6.416 -3.79,-2.239 -8.721,-2.864 -11.85,-6.036 -0.841,1.835 -1.676,3.669 -2.527,5.483 3.324,0.806 6.481,2.445 9.67,3.879 1.495,0.673 3.053,1.493 4.538,2.139 1.692,0.736 3.503,0.914 4.875,1.9 2.304,1.658 4.229,5.74 6.051,8.316 2.138,3.022 4.304,5.701 5.714,8.791 0.172,1.261 0.358,2.503 1.177,2.851 0.824,-2.162 1.808,-4.097 2.521,-6.415 -1.105,-0.9 -1.306,0.502 -2.521,0.475 -2.273,-0.052 -4.971,-4.562 -6.891,-7.366 -1.383,-2.018 -2.611,-4.053 -3.531,-5.464 4.328,2.516 10.009,3.118 13.279,7.128 0.311,0.589 -0.056,2.138 0.84,1.9 1.051,-1.535 2.722,-5.483 3.194,-7.84 -3.67,-0.019 -7.775,-2.432 -11.935,-4.277 -1.646,-0.731 -3.438,-1.417 -5.042,-2.139 -1.75,-0.787 -3.694,-1.121 -5.042,-2.138 -0.925,-0.697 -2.047,-2.546 -3.026,-3.801 -2.734,-3.511 -5.439,-7.454 -7.687,-11.159 -0.379,0.761 -0.751,1.525 -1.119,2.292 1.695,0.673 3.589,3.259 4.941,5.065 z m -8.236,-0.474 c -0.501,-0.66 0.621,-1.475 -0.168,-1.901 -1.208,-0.343 -1.533,2.134 -2.017,3.326 -0.607,1.497 -1.533,2.899 -1.681,4.515 0.708,0.085 1.404,0.229 2.095,0.397 0.851,-1.814 1.686,-3.647 2.527,-5.483 -0.263,-0.269 -0.519,-0.548 -0.756,-0.854 z m 243.209,-2.615 c -0.699,0.97 -0.92,-0.625 -1.849,-0.711 -2.044,-0.192 -6.728,4.579 -8.403,5.939 -5.529,4.485 -10.322,8.797 -15.631,13.068 -2.732,2.197 -5.662,3.729 -7.564,6.891 -0.176,1.111 0.494,1.952 -0.168,2.375 -1.083,10e-4 -1.586,-2.345 -2.186,-3.801 -0.629,-1.527 -1.561,-3.114 -1.512,-4.514 0.824,-1.363 0.886,0.872 1.848,0.712 5.78,-3.368 11.048,-8.228 16.305,-12.591 5.285,-4.389 10.892,-7.95 15.463,-13.543 0.26,-0.942 -0.637,-1.453 -0.169,-1.901 0.249,-0.124 0.425,-0.352 0.673,-0.476 0.144,-0.043 0.158,0.093 0.168,0.238 0.512,1.279 1.244,2.776 1.85,4.276 0.553,1.376 1.392,2.985 1.175,4.038 z m -171.272,-28.274 c -2.399,-2.42 -4.836,-7.026 -7.396,-10.929 -1.12,-1.709 -2.234,-3.739 -3.53,-5.702 -1.342,-2.035 -3.114,-3.896 -3.697,-5.703 -0.901,-2.787 -1.25,-6.725 -2.017,-10.455 -0.703,-3.414 -1.776,-7.022 -1.836,-10.142 -0.624,0.581 -1.25,1.162 -1.878,1.74 2.34,4.411 3.252,10.838 4.386,16.956 -1.176,-1.846 -2.793,-4.226 -4.538,-6.891 -1.145,-1.75 -3.189,-4.229 -3.831,-6.417 -1.137,1.035 -2.273,2.068 -3.411,3.102 1.037,1.251 1.967,2.639 3.04,4.266 2.341,3.547 4.429,6.921 6.723,10.455 1.144,1.759 2.595,3.439 3.362,5.227 0.985,2.294 1.462,6.466 2.186,10.455 0.703,3.882 1.688,7.769 1.848,10.929 0.12,2.363 -0.554,3.297 0,4.752 1.539,-1.231 3.447,-1.94 4.371,-4.04 -0.295,-1.054 -0.775,-0.37 -1.681,-0.475 -3.479,-3.953 -3.362,-12.987 -5.21,-19.245 3.128,5.081 6.972,9.151 9.245,15.443 -0.05,1.327 -0.746,1.575 -0.169,2.613 1.91,-0.56 4.142,-2.689 5.715,-4.514 -0.079,-1.1 -1.114,-0.852 -1.682,-1.425 z m -30.085,-36.827 c 0.205,0.174 0.382,0.358 0.574,0.537 1.25,-1.576 2.53,-3.118 3.846,-4.614 -0.546,0.344 -1.093,0.848 -1.562,1.226 -1.037,0.833 -2.134,1.889 -2.858,2.851 z m 2.338,2.388 c 1.138,-1.034 2.274,-2.067 3.411,-3.102 -0.12,-0.407 -0.196,-0.805 -0.203,-1.186 -0.024,-1.381 0.684,-1.342 0.504,-2.376 -0.48,-0.345 -1.055,-0.162 -1.631,0.2 -1.316,1.496 -2.595,3.038 -3.846,4.614 0.635,0.59 1.224,1.198 1.765,1.85 z m 9.427,-11.892 c -1.2,0.378 -3.732,2.146 -4.201,3.563 0.104,1.042 1.307,0.528 1.849,0.951 0.116,0.196 0.211,0.421 0.32,0.627 0.628,-0.578 1.254,-1.159 1.878,-1.74 0,-0.183 -0.017,-0.371 -0.013,-0.55 0.024,-1.164 0.763,-1.897 0.167,-2.851 z m 135.303,-0.712 c 0.144,-0.043 0.158,0.093 0.168,0.238 1.012,0.703 2.254,1.471 3.362,2.375 0.896,0.733 2.45,1.593 2.354,3.089 -0.339,0.975 -0.664,-0.12 -1.345,0 -2.402,2.41 -3.645,6.629 -5.211,10.454 -3.803,9.283 -7.461,18.37 -11.43,28.273 -0.815,2.035 -2.1,4.098 -2.017,5.941 0.054,1.217 0.985,1.63 0.673,2.613 -0.965,0.817 -2.107,-1.032 -3.194,-1.901 -1.079,-0.862 -2.749,-1.439 -2.856,-2.85 0.081,-1.651 1.108,0.269 1.512,-0.476 3.728,-5.812 6.322,-13.822 9.581,-21.858 2.13,-5.254 4.479,-10.941 6.892,-16.87 0.773,-1.905 2.088,-4.279 2.016,-5.94 -0.053,-1.207 -1.333,-2.064 -0.505,-3.088 z m -128.916,-4.99 c -1.824,1.935 -4.282,2.975 -5.882,5.227 0.436,1.493 1,0.162 2.015,0.712 0.077,0.143 0.148,0.292 0.224,0.436 1.137,-1.081 2.266,-2.168 3.385,-3.268 -0.025,-0.086 -0.053,-0.17 -0.078,-0.256 0.183,-1.268 1.386,-1.694 0.336,-2.851 z m 17.984,47.757 c -3.752,-6.673 -6.513,-14.444 -9.58,-21.859 -3.046,-7.364 -6.316,-14.705 -8.662,-22.791 -1.119,1.099 -2.248,2.187 -3.385,3.268 3.529,6.664 6.224,14.148 9.19,21.424 3.01,7.384 6.45,14.642 8.74,22.809 0.066,1.426 -1.389,1.336 -0.504,2.614 1.083,0.145 2.032,-1.316 3.025,-2.138 1.055,-0.875 2.5,-1.335 3.025,-2.852 -0.303,-1.131 -0.937,-0.361 -1.849,-0.475 z m 57.652,-66.765 c 0.325,1.262 -1.233,1.571 -1.514,2.376 -0.81,2.334 -0.335,8.38 -0.335,12.593 0,8.605 0,16.65 0,25.66 0,4.225 -0.466,9.915 0.335,12.355 0.244,0.741 1.628,1.685 1.514,2.376 -0.332,1.27 -2.242,0.712 -3.53,0.712 -1.277,0 -3.028,0.517 -3.361,-0.712 -0.197,-1.625 1.444,-0.651 1.513,-1.901 0.593,-10.592 0.337,-25.542 0.337,-38.49 0,-3.724 0.559,-9.904 -0.337,-12.356 -0.356,-0.973 -1.323,-1.227 -1.513,-2.375 1.576,-0.94 5.035,-0.483 6.891,-0.238 z m -7.396,0.238 c 0.172,1.59 -1.33,0.813 -1.513,1.901 -0.595,10.521 -0.337,25.381 -0.337,38.015 0,3.955 -0.619,9.723 0.169,12.592 0.315,1.152 1.181,1.365 1.681,2.376 -0.104,1.594 -2.139,0.951 -3.361,0.951 -1.371,0 -2.922,0.374 -3.529,-0.476 -0.053,-1.231 1.209,-1.607 1.512,-2.613 0.759,-2.519 0.336,-8.023 0.336,-12.355 0,-8.464 0,-16.69 0,-25.66 0,-4.344 0.467,-9.942 -0.336,-12.356 -0.227,-0.681 -1.712,-1.726 -1.512,-2.375 1.525,-0.789 5.365,-0.789 6.89,0 z m -21.01,-0.476 c 2.129,0.158 4.705,-0.315 6.555,0.238 0.244,1.771 -1.175,1.19 -1.344,2.376 0.111,7.127 1.73,12.125 2.354,18.532 0.48,-4.545 3.526,-12.571 2.352,-17.819 -0.276,-1.238 -1.234,-1.461 -1.344,-2.852 0.911,-0.932 3.686,-0.489 4.874,-0.238 0.197,1.499 -0.896,1.619 -1.345,2.613 -1.191,2.639 -1.404,7.029 -2.018,10.692 -0.625,3.738 -1.342,7.302 -2.018,10.455 0.789,4.651 1.556,9.514 2.354,14.493 0.764,4.762 1.116,10.097 2.354,14.256 0.367,1.232 1.283,2.024 1.008,3.564 -2.072,-0.158 -4.592,0.315 -6.386,-0.238 -0.255,-1.612 0.968,-2.053 1.177,-3.326 0.438,-2.664 -0.666,-6.577 -1.177,-9.742 -0.553,-3.421 -1.001,-6.64 -1.514,-9.266 -0.11,4.729 -4.098,14.242 -2.688,19.245 0.361,1.281 1.402,1.132 1.512,2.852 -0.975,0.944 -3.787,0.472 -5.041,0.237 -0.24,-1.526 1.056,-2.382 1.512,-3.563 1.055,-2.73 1.457,-7.046 2.186,-10.93 0.699,-3.729 2.04,-7.61 2.018,-10.929 -0.028,-3.95 -1.522,-9.721 -2.186,-13.781 -0.994,-6.085 -1.449,-11.932 -3.193,-15.919 0,-0.316 0,-0.632 0,-0.95 z m 104.621,145.476 c -4.936,-16.497 -12.001,-31.31 -21,-44.032 -9,-12.723 -19.48,-22.71 -31.15,-29.688 -12.08,-7.223 -24.914,-10.886 -38.143,-10.886 -13.229,0 -26.063,3.663 -38.144,10.886 -11.669,6.978 -22.15,16.965 -31.149,29.688 -9,12.722 -16.064,27.536 -21.001,44.032 -5.109,17.078 -7.701,35.22 -7.701,53.921 0,18.7 2.592,36.843 7.701,53.922 4.937,16.496 12.001,31.309 21.001,44.03 9,12.723 19.48,22.71 31.149,29.688 12.081,7.223 24.915,10.886 38.144,10.886 13.229,0 26.062,-3.663 38.143,-10.886 11.67,-6.979 22.15,-16.966 31.15,-29.688 8.999,-12.722 16.064,-27.534 21,-44.03 5.11,-17.079 7.701,-35.222 7.701,-53.922 10e-4,-18.702 -2.59,-36.843 -7.701,-53.921 z m -90.293,191.736 c -53.757,0 -97.491,-61.824 -97.491,-137.814 0,-75.991 43.734,-137.814 97.491,-137.814 53.756,0 97.49,61.823 97.49,137.814 10e-4,75.989 -43.734,137.814 -97.49,137.814 z m 83.405,-187.622 c -4.559,-15.238 -11.086,-28.922 -19.398,-40.673 -8.313,-11.751 -17.993,-20.978 -28.771,-27.422 -11.16,-6.673 -23.015,-10.056 -35.234,-10.056 -12.221,0 -24.075,3.383 -35.235,10.056 -10.779,6.445 -20.458,15.671 -28.772,27.422 -8.313,11.751 -14.839,25.435 -19.398,40.673 -4.721,15.776 -7.114,32.533 -7.114,49.808 0,17.273 2.393,34.031 7.114,49.809 4.559,15.236 11.085,28.921 19.398,40.671 8.313,11.753 17.993,20.978 28.772,27.424 11.16,6.673 23.014,10.057 35.235,10.057 12.22,0 24.074,-3.384 35.234,-10.057 10.778,-6.446 20.458,-15.671 28.771,-27.424 8.312,-11.75 14.84,-25.435 19.398,-40.671 4.721,-15.777 7.114,-32.535 7.114,-49.809 0,-17.275 -2.394,-34.033 -7.114,-49.808 z m -83.405,177.053 c -49.635,0 -90.015,-57.082 -90.015,-127.246 0,-70.164 40.38,-127.247 90.015,-127.247 49.634,0 90.014,57.083 90.014,127.247 0,70.164 -40.38,127.246 -90.014,127.246 z m -136.273,-199.324 c 0.178,0.264 0.361,0.528 0.548,0.791 0.984,-3.749 2.048,-7.442 3.18,-11.085 -0.405,0.436 -0.8,0.878 -1.188,1.322 -0.071,0.232 -0.144,0.462 -0.213,0.695 -0.82,2.74 -1.594,5.501 -2.327,8.277 z m 277.307,-12.509 c -7.71,-25.766 -18.746,-48.905 -32.803,-68.775 -14.057,-19.871 -30.426,-35.472 -48.652,-46.37 -18.87,-11.282 -38.916,-17.003 -59.578,-17.003 -20.664,0 -40.709,5.721 -59.579,17.003 -18.228,10.898 -34.596,26.499 -48.652,46.37 -14.057,19.87 -25.093,43.01 -32.803,68.775 -7.98,26.675 -12.028,55.011 -12.028,84.22 0,29.21 4.047,57.545 12.028,84.22 7.709,25.767 18.746,48.903 32.803,68.774 14.057,19.872 30.425,35.475 48.652,46.371 18.87,11.282 38.915,17.005 59.579,17.005 20.662,0 40.708,-5.723 59.578,-17.005 18.227,-10.896 34.596,-26.499 48.652,-46.371 14.057,-19.871 25.093,-43.008 32.803,-68.774 7.98,-26.675 12.027,-55.01 12.027,-84.22 0,-29.21 -4.047,-57.545 -12.027,-84.22 z m 10.478,61.067 -6.973,1.035 c -0.521,-6.922 -1.288,-13.777 -2.301,-20.554 l 6.844,-2.056 c 1.061,7.072 1.875,14.269 2.43,21.575 z m -2.534,-22.271 -6.843,2.055 c -1.031,-6.782 -2.309,-13.485 -3.827,-20.094 l 6.648,-3.054 c 1.585,6.885 2.929,13.924 4.022,21.093 z m -4.181,-21.771 -6.647,3.053 c -1.243,-5.344 -2.644,-10.629 -4.204,-15.846 -0.357,-1.196 -0.726,-2.384 -1.098,-3.567 l 6.374,-4.012 c 2.093,6.623 3.956,13.419 5.575,20.372 z m -15.211,-46.046 -1.756,5 -1.816,5.173 4.09,0.353 3.953,0.363 c 1.771,4.613 3.428,9.326 4.961,14.133 l -6.375,4.012 c -4.114,-12.945 -9.129,-25.164 -15.001,-36.566 l 5.616,-5.766 c 2.223,4.314 4.334,8.751 6.328,13.298 z m -6.627,-13.873 -5.616,5.768 c -2.893,-5.578 -5.993,-10.958 -9.292,-16.13 l 5.161,-6.569 c 3.445,5.405 6.699,11.054 9.747,16.931 z m -10.084,-17.461 -5.161,6.568 c -1.595,-2.482 -3.235,-4.916 -4.923,-7.301 -1.793,-2.534 -3.628,-4.993 -5.498,-7.381 l 4.646,-7.295 c 3.826,4.874 7.477,10.016 10.936,15.409 z m -11.31,-15.887 -4.647,7.295 c -3.668,-4.647 -7.481,-9.014 -11.437,-13.086 l 4.08,-7.938 c 4.166,4.293 8.172,8.877 12.004,13.729 z m -29.397,-29.224 0.25,5.599 0.256,5.764 3.668,-2.586 3.54,-2.47 c 3.168,2.768 6.261,5.692 9.271,8.772 l -4.081,7.938 c -8.079,-8.26 -16.735,-15.31 -25.903,-21.087 l 2.838,-9.011 c 3.458,2.184 6.845,4.551 10.161,7.081 z m -10.622,-7.372 -2.839,9.012 c -0.705,-0.44 -1.412,-0.876 -2.123,-1.3 -3.823,-2.287 -7.699,-4.331 -11.619,-6.134 l 2.16,-9.397 c 4.922,2.267 9.733,4.881 14.421,7.819 z m -14.9,-8.038 -2.16,9.396 c -4.678,-2.127 -9.421,-3.908 -14.218,-5.346 l 1.455,-9.672 c 5.071,1.522 10.049,3.403 14.923,5.622 z m -15.417,-5.772 -1.455,9.676 c -4.793,-1.411 -9.642,-2.476 -14.537,-3.193 l 0.734,-9.857 c 5.166,0.765 10.256,1.897 15.258,3.374 z m -35.873,-4.448 2.178,4.631 2.26,4.81 2.262,-4.832 2.184,-4.627 c 3.779,0.147 7.524,0.487 11.23,1.018 l -0.734,9.856 c -4.868,-0.689 -9.783,-1.036 -14.734,-1.036 -5.092,0 -10.143,0.369 -15.146,1.098 l -0.732,-9.856 c 3.705,-0.546 7.453,-0.901 11.232,-1.062 z m -11.735,1.137 0.732,9.855 c -4.893,0.736 -9.738,1.82 -14.528,3.25 l -1.455,-9.675 c 4.999,-1.496 10.086,-2.646 15.251,-3.43 z m -15.744,3.578 1.455,9.673 c -4.793,1.455 -9.531,3.259 -14.204,5.404 l -2.16,-9.398 c 4.867,-2.237 9.842,-4.136 14.909,-5.679 z m -15.389,5.904 2.161,9.396 c -3.789,1.761 -7.535,3.743 -11.233,5.955 -0.834,0.499 -1.664,1.011 -2.489,1.53 l -2.838,-9.012 c 4.68,-2.954 9.485,-5.585 14.399,-7.869 z m -32.601,21.517 3.544,2.487 3.659,2.568 0.25,-5.783 0.257,-5.601 c 3.273,-2.509 6.618,-4.857 10.03,-7.03 l 2.838,9.012 c -9.151,5.809 -17.791,12.888 -25.852,21.176 l -4.08,-7.938 c 3.035,-3.121 6.155,-6.086 9.354,-8.891 z m -9.761,9.313 4.08,7.938 c -3.943,4.085 -7.748,8.462 -11.406,13.121 l -4.647,-7.296 c 3.822,-4.864 7.818,-9.46 11.973,-13.763 z m -12.348,14.239 4.647,7.297 c -1.774,2.275 -3.514,4.615 -5.217,7.023 -1.775,2.509 -3.497,5.074 -5.169,7.69 l -5.161,-6.57 c 3.449,-5.4 7.086,-10.555 10.9,-15.44 z m -11.237,15.971 5.161,6.569 c -3.287,5.18 -6.377,10.565 -9.259,16.148 l -5.615,-5.767 c 3.036,-5.882 6.28,-11.539 9.713,-16.95 z m -20.73,41.648 3.965,-0.352 4.078,-0.363 -1.83,-5.183 -1.75,-5.011 c 1.973,-4.516 4.061,-8.923 6.258,-13.21 l 5.616,5.767 c -5.846,11.411 -10.836,23.638 -14.928,36.587 l -6.374,-4.012 c 1.534,-4.839 3.193,-9.581 4.965,-14.223 z m -5.168,14.873 6.374,4.013 c -0.253,0.81 -0.502,1.624 -0.749,2.44 0.388,-0.444 0.782,-0.886 1.188,-1.322 22.402,-72.075 73.379,-122.541 132.545,-122.541 79.786,0 144.697,91.758 144.697,204.545 0,112.787 -64.911,204.546 -144.697,204.546 -79.787,0 -144.698,-91.759 -144.698,-204.546 0,-24.921 3.174,-48.813 8.973,-70.919 -0.187,-0.263 -0.37,-0.527 -0.548,-0.791 -0.699,2.651 -1.359,5.318 -1.979,8 l -6.647,-3.053 c 1.606,-6.952 3.458,-13.748 5.541,-20.372 z m -5.697,21.05 6.646,3.053 c -1.507,6.608 -2.771,13.31 -3.79,20.088 l -6.844,-2.056 c 1.082,-7.165 2.415,-14.2 3.988,-21.085 z m -4.092,21.784 6.844,2.057 c -1.001,6.773 -1.758,13.624 -2.27,20.542 l -6.971,-1.036 c 0.544,-7.303 1.348,-14.495 2.397,-21.563 z m -3.24,44.504 v 0.21 c 0,-0.137 0,-0.274 0,-0.412 0,-0.14 0,-0.279 0,-0.418 v 0.62 z m 0.07,6.327 3.333,-3.131 3.403,-3.196 -3.419,-3.196 -3.326,-3.138 c 0.106,-5.35 0.349,-10.651 0.728,-15.899 l 6.973,1.036 c -0.495,6.937 -0.745,13.939 -0.745,20.995 0,7.141 0.256,14.225 0.764,21.241 l -6.973,1.036 c -0.38,-5.198 -0.627,-10.449 -0.738,-15.748 z m 0.792,16.457 6.972,-1.035 c 0.517,6.918 1.28,13.768 2.287,20.539 l -6.843,2.057 c -1.057,-7.068 -1.866,-14.26 -2.416,-21.561 z m 2.519,22.258 6.842,-2.057 c 1.026,6.779 2.296,13.48 3.81,20.088 l -6.646,3.053 c -1.58,-6.883 -2.919,-13.919 -4.006,-21.084 z m 4.164,21.762 6.647,-3.055 c 1.254,5.41 2.669,10.758 4.249,16.037 0.338,1.131 0.686,2.253 1.037,3.372 l -6.375,4.013 c -2.088,-6.621 -3.946,-13.416 -5.558,-20.367 z m 15.261,46.248 1.757,-5.006 1.817,-5.172 -4.09,-0.354 -3.958,-0.362 c -1.795,-4.679 -3.473,-9.46 -5.024,-14.336 l 6.375,-4.013 c 4.103,12.945 9.107,25.168 14.965,36.573 l -5.615,5.767 c -2.185,-4.251 -4.261,-8.622 -6.227,-13.097 z m 6.523,13.675 5.616,-5.769 c 2.889,5.582 5.983,10.965 9.278,16.141 l -5.162,6.569 c -3.439,-5.408 -6.688,-11.061 -9.732,-16.941 z m 10.07,17.471 5.162,-6.57 c 1.629,2.543 3.307,5.037 5.034,7.479 1.753,2.477 3.545,4.885 5.373,7.223 l -4.647,7.295 c -3.822,-4.881 -7.467,-10.031 -10.922,-15.427 z m 11.297,15.904 4.646,-7.298 c 3.665,4.654 7.475,9.025 11.426,13.104 l -4.081,7.938 c -4.161,-4.296 -8.163,-8.886 -11.991,-13.744 z m 29.528,29.387 -0.249,-5.597 -0.257,-5.764 -3.667,2.588 -3.54,2.47 c -3.219,-2.812 -6.361,-5.787 -9.416,-8.921 l 4.08,-7.938 c 8.075,8.276 16.728,15.341 25.892,21.133 l -2.838,9.012 c -3.403,-2.157 -6.739,-4.489 -10.005,-6.983 z m 10.466,7.274 2.839,-9.012 c 0.753,0.471 1.511,0.939 2.272,1.393 3.775,2.258 7.6,4.279 11.468,6.063 l -2.16,9.397 c -4.92,-2.273 -9.731,-4.898 -14.419,-7.841 z m 14.9,8.062 2.159,-9.395 c 4.679,2.135 9.423,3.925 14.222,5.369 l -1.454,9.673 c -5.074,-1.53 -10.054,-3.419 -14.927,-5.647 z m 15.419,5.796 1.456,-9.675 c 4.794,1.418 9.645,2.491 14.542,3.214 l -0.733,9.856 c -5.169,-0.772 -10.262,-1.91 -15.265,-3.395 z m 35.992,4.492 -2.21,-4.7 -2.26,-4.812 -2.262,4.833 -2.215,4.692 c -3.797,-0.15 -7.558,-0.495 -11.279,-1.032 l 0.732,-9.857 c 4.916,0.702 9.879,1.056 14.879,1.056 5.051,0 10.062,-0.362 15.025,-1.079 l 0.732,9.857 c -3.676,0.538 -7.392,0.886 -11.142,1.042 z m 11.645,-1.12 -0.732,-9.854 c 4.896,-0.731 9.747,-1.812 14.542,-3.236 l 1.454,9.676 c -5.003,1.491 -10.096,2.638 -15.264,3.414 z m 15.757,-3.562 -1.454,-9.674 c 4.8,-1.453 9.543,-3.252 14.221,-5.395 l 2.16,9.397 c -4.873,2.235 -9.854,4.131 -14.927,5.672 z m 15.405,-5.894 -2.159,-9.399 c 3.819,-1.77 7.595,-3.765 11.321,-5.994 0.811,-0.484 1.615,-0.98 2.419,-1.484 l 2.837,9.012 c -4.685,2.951 -9.497,5.58 -14.418,7.865 z m 32.688,-21.557 -3.533,-2.48 -3.658,-2.566 -0.25,5.781 -0.256,5.585 c -3.301,2.528 -6.67,4.896 -10.109,7.081 l -2.838,-9.012 c 9.163,-5.808 17.814,-12.889 25.885,-21.183 l 4.08,7.938 c -3.024,3.108 -6.134,6.06 -9.321,8.856 z m 9.728,-9.278 -4.081,-7.939 c 3.95,-4.088 7.759,-8.467 11.421,-13.131 l 4.648,7.297 c -3.828,4.866 -7.828,9.467 -11.988,13.773 z m 12.364,-14.25 -4.647,-7.297 c 1.781,-2.281 3.527,-4.631 5.237,-7.049 1.772,-2.506 3.492,-5.066 5.162,-7.68 l 5.162,6.57 c -3.453,5.407 -7.096,10.568 -10.914,15.456 z m 11.25,-15.986 -5.16,-6.57 c 3.291,-5.185 6.385,-10.576 9.27,-16.167 l 5.615,5.767 c -3.04,5.89 -6.288,11.552 -9.725,16.97 z m 20.733,-41.649 -3.954,0.354 -4.078,0.36 1.831,5.185 1.744,4.994 c -1.974,4.514 -4.06,8.922 -6.256,13.207 l -5.616,-5.768 c 5.853,-11.424 10.847,-23.667 14.939,-36.633 l 6.375,4.014 c -1.539,4.86 -3.205,9.623 -4.985,14.287 z m 5.191,-14.939 -6.375,-4.013 c 0.319,-1.022 0.636,-2.048 0.944,-3.079 1.609,-5.384 3.051,-10.839 4.322,-16.357 l 6.649,3.054 c -1.606,6.961 -3.459,13.765 -5.54,20.395 z m 5.696,-21.075 -6.647,-3.054 c 1.508,-6.616 2.771,-13.325 3.79,-20.113 l 6.843,2.057 c -1.081,7.175 -2.414,14.218 -3.986,21.11 z m 4.09,-21.808 -6.845,-2.057 c 1,-6.781 1.755,-13.639 2.264,-20.565 l 6.973,1.038 c -0.543,7.307 -1.345,14.51 -2.392,21.584 z m -4.529,-23.33 c 0.489,-6.895 0.736,-13.854 0.736,-20.867 0,-7.196 -0.26,-14.337 -0.776,-21.409 l 6.973,-1.035 c 0.386,5.257 0.638,10.57 0.751,15.931 l -3.326,3.123 -3.402,3.197 3.418,3.196 3.319,3.13 c -0.106,5.307 -0.346,10.566 -0.719,15.77 l -6.974,-1.036 z m -142.463,-16.54303 c 0,2.83709 -1.4784,5.137 -3.302,5.137 -1.8237,0 -3.302,-2.29991 -3.302,-5.137 0,-2.83708 1.4783,-5.137 3.302,-5.137 1.8236,0 3.302,2.29992 3.302,5.137 z m -10.033,-88.22197 c 1.947,-2.357 2.959,-6.176 2.58,-12.173 -3.031,-1.345 -5.841,-3.032 -8.141,-5.507 4.596,-6.107 8.148,-13.849 8.201,-27.068 -1.903,-2.015 -4.312,-3.25 -6.064,-5.498 2.197,-1.384 4.097,-3.233 6.083,-4.947 -0.175,-2.805 -0.499,-4.731 -1.425,-7.217 -0.371,-0.997 -1.79,-2.849 -1.91,-3.987 -0.129,-1.21 0.777,-4.379 1.13,-6.467 2.429,-14.378 4.988,-31.315 5.522,-47.974 0.64,0.003 1.279,0.005 1.918,0.009 0.59,16.664 2.786,33.308 5.345,48.022 0.365,2.096 1.215,4.93 1.108,6.225 -0.122,1.472 -1.58,3.48 -2.088,4.966 -0.74,2.166 -1.172,3.648 -1.289,6.211 1.768,2.141 3.922,3.684 6.062,5.249 -1.758,2.155 -3.979,3.584 -6.082,5.195 -0.039,13.367 3.481,21.228 8.101,27.39 -2.368,2.282 -4.874,4.344 -8.161,5.186 0.029,3.729 -0.216,5.741 0.465,8.208 0.424,1.54 2.063,3.598 2.07,3.988 0.01,0.423 -1.877,3.234 -2.085,3.968 -1.05,3.691 -0.501,11.578 -0.513,17.903 -0.025,14.185 -0.625,33.172 -0.085,46.252 0.138,3.351 0.655,6.007 1.263,8.46 0.951,3.835 2.9,7.179 2.854,12.197 -0.065,6.834 -3.509,12.197 -7.694,12.648 -5.933,0.639 -10.521,-8.418 -8.439,-17.445 1.034,-4.48 3.361,-8.586 3.705,-15.648 0.434,-8.911 0.037,-20.098 0.058,-31.084 0.021,-11.489 0.734,-23.161 0.057,-30.834 -0.245,-2.768 -0.938,-4.154 -2.546,-6.228 z m 9.778,-15.374 c -1.846,0.043 -2.622,-1.564 -3.029,-3.744 -0.306,2.43 -1.475,3.511 -3.044,3.965 1.988,0.202 4.319,0.55 6.073,-0.221 z m 2.726,-4.712 c 0.217,-4.102 -1.059,-5.775 -1.902,-8.221 -1.729,-5.001 -2.461,-9.964 -3.166,-16.681 -0.427,-10e-4 -0.854,-0.003 -1.279,-0.005 -0.336,4.225 -0.989,7.725 -1.779,11.188 -1.145,5.023 -3.035,7.847 -3.381,13.665 0.287,2.42 4.436,3.028 3.518,-0.729 -1.708,4.436 -4.105,-2.384 -1.59,-4.483 1.583,-1.321 3.158,-0.088 3.671,2.751 0.943,-2.059 2.267,-4.518 4.16,-2.716 2.419,2.301 -0.388,9.043 -1.927,4.468 -0.117,1.257 0.173,1.881 0.476,2.488 1.418,0.85 2.703,-0.332 3.199,-1.725 z m 6.223,186.311 c -4.711,10.853 -2.777,32.792 9.244,29.864 3.026,6.398 6.699,7.06 10.553,7.264 2.494,0.132 5.441,-1.136 6.912,3.328 -5.193,2.428 -1.829,13.564 2.203,10.065 4.277,14.448 10.877,15.794 15.492,28.348 0.533,-0.743 2.018,-1.079 1.57,-2.245 -4.522,-12.217 -1.801,-22.291 -7.611,-34.453 4.174,-4.052 -0.457,-13.492 -4.506,-8.314 -1.497,-4.502 0.736,-7.674 1.982,-11.189 1.96,-5.53 3.221,-10.377 1.121,-17.575 6.389,-9.169 1.084,-23.149 -6.416,-26.645 -1.234,-0.577 -3.26,-0.835 -5.035,-0.701 -1.893,0.144 -4.205,1.169 -5.172,-0.577 -1.11,-2.006 -0.966,-5.79 0.506,-6.166 0.809,-0.205 1.082,1.562 1.562,1.766 3.035,-2.566 0.629,-8.299 -1.391,-9.354 -3.232,-1.686 -6.616,3.711 -6.715,8.793 -0.037,1.904 0.48,3.276 0.545,5.524 -3.595,-8.473 -5.435,-16.192 -2.46,-21.848 -5.102,0.479 -8.7,-7.048 -11.665,-16.859 -2.959,-9.79 1.789,-16.772 -1.619,-26.593 -1.623,-4.674 -4.118,-7.531 -6.17,-8.847 -10.795,-6.932 -22.504,13.013 -14.662,29.824 3.311,7.096 9.412,5.894 12.685,13.1 4.259,9.385 6.673,18.086 3.624,24.537 4.405,-0.161 8.365,5.719 10.678,15.156 -1.947,-5.141 -7.832,-7.28 -10.346,-1.15 -1.504,3.668 0.548,11.616 4.01,8.467 -1.852,-4.052 2.58,-4.702 3.489,-0.51 0.463,2.13 -1.274,4.375 -2.408,6.99 z m 7.479,-42.353 c 0.815,-0.19 1.485,0.433 2.179,0.933 -0.337,0.829 -0.653,1.667 -0.48,2.714 -0.794,0.068 -1.102,-2.607 -1.699,-3.647 z m -8.03,12.241 c -0.719,0.084 -1.254,-0.863 -2.02,-0.502 -0.1,-1.257 0.641,-2.156 0.382,-3.484 0.665,0.656 1.073,2.769 1.638,3.986 z m 7.701,51.82 c -4.105,0.531 -5.806,-9.88 -3.248,-13.432 0.461,-0.64 1.789,-1.891 2.479,-0.762 0.233,0.77 0.113,1.385 -0.438,1.818 0.397,0.398 0.85,0.484 1.426,-0.117 -0.242,4.093 -1.282,7.84 -0.219,12.493 z m 23.247,14.346 c -0.231,0.207 -0.464,0.41 -0.695,0.615 -1.696,-4.539 -3.946,-5.951 -6.492,-5.703 1.296,-1.998 2.833,-3.894 2.351,-6.654 1.309,1.662 2.951,1.438 4.798,0.053 -0.941,3.488 -1.973,6.937 0.038,11.689 z m 3.052,-45.018 c 0.877,2.286 0.941,4.791 0.385,7.095 -2.252,-2.735 -4.691,-4.403 -7.206,-5.644 0.261,-0.617 0.767,-1.13 0.796,-1.847 -0.397,-0.184 -0.936,0.427 -1.168,-0.685 1.001,-4.933 5.69,-2.841 7.193,1.081 z m -17.684,-10.685 c 2.682,4.496 6.014,5.32 9.967,2.633 -1.822,2.138 -3.529,4.322 -1.877,7.95 -3.116,-1.156 -5.933,-4.007 -8.09,-10.583 z m 5.401,17.818 c 2.782,0.441 5.94,1.197 8.238,4.447 0.07,0.271 0.172,0.357 0.297,0.311 -3.761,3.365 -7.273,-0.411 -10.041,-4.855 0.258,-0.835 0.895,10e-4 1.506,0.097 z m 11.914,11.494 c 2.998,6.16 -3.513,16.068 -6.34,9.32 1.165,2.27 3.398,-0.762 2.899,-3.134 -1.19,-5.66 -7.254,-2.866 -5.755,3.368 -2.703,-4.689 -7.842,1.532 -4.867,6.301 0.943,1.514 3.83,0.484 2.918,-2.577 2.689,7.219 -6.438,11.28 -8.174,3.789 5.045,-5.437 5.416,-12.876 4.953,-20.675 4.382,3.501 8.561,8.143 14.366,3.608 z m -19.059,-6.896 c 1.285,6.268 1.416,12.038 -2.168,16.215 -0.918,-5.987 0.553,-11.922 2.168,-16.215 z m -7.846,-13.944 c 2.863,5.545 2.75,11.393 1.975,15.984 -0.93,-2.914 -3.129,-3.791 -5.41,-1.225 2.935,-4.151 5.246,-8.573 3.435,-14.759 z m -17.093,-287.519 c -48.963,0 -88.416,20.107 -118.36,60.312 -29.956,40.215 -44.922,93.232 -44.922,159.062 0,60.84 13.013,110.938 39.062,150.312 26.038,39.375 60.413,61.974 103.125,67.813 -2.088,0.41 -4.041,0.723 -5.86,0.938 -1.831,0.205 -3.784,0.518 -5.859,0.938 -2.087,0 -4.041,0.098 -5.859,0.312 -1.831,0.205 -3.784,0.312 -5.859,0.312 -2.612,0 -5.469,-0.107 -8.594,-0.312 -3.125,-0.215 -6.775,-0.732 -10.938,-1.562 -2.087,-0.42 -3.906,-0.625 -5.469,-0.625 h -4.686 c -20.837,-0.42 -38.281,5.938 -52.344,19.06199 -14.063,13.124 -21.094,27.598 -21.094,43.438 v 3.438 c 0,1.035 0.256,2.188 0.781,3.438 0.513,5.41 2.209,10.723 5.078,15.938 2.856,5.205 6.897,10.312 12.109,15.312 l 11.719,-10 c -3.65,-2.92 -6.909,-6.465 -9.766,-10.625 -2.869,-4.17 -4.297,-8.545 -4.297,-13.125 v -3.125 c 0,-0.84 0.122,-1.465 0.391,-1.875 0.256,-0.42 0.391,-1.045 0.391,-1.875 1.038,-3.34 3.381,-5.84 7.031,-7.5 3.638,-1.67 7.544,-2.5 11.719,-2.5 h 3.516 c 1.294,0 2.466,0.205 3.516,0.625 2.075,0.41 3.906,0.83 5.469,1.25 1.562,0.41 3.125,1.25 4.688,2.5 l 118.75,56.25 c 6.762,3.33 13.281,5.625 19.531,6.875 6.25,1.25 12.23,2.08 17.969,2.5 20.312,0 37.5,-6.465 51.562,-19.375 14.062,-12.92 21.35,-27.295 21.875,-43.125 0,-7.5 -1.832,-14.795 -5.469,-21.875 -3.65,-7.09 -9.9,-13.34 -18.75,-18.75 l -11.719,8.75 c 5.725,3.33 10.412,7.5 14.062,12.5 3.637,5 5.469,10.205 5.469,15.625 v 2.812 c 0,1.035 -0.27,1.973 -0.781,2.812 -0.525,3.33 -2.734,5.83 -6.641,7.5 -3.906,1.66 -8.203,2.5 -12.891,2.5 h -5.469 c -2.088,-0.42 -4.041,-0.84 -5.859,-1.25 -1.832,-0.42 -3.516,-0.84 -5.078,-1.25 l -97.656,-48.125 c 51.037,-7.08999 90.1,-27.18799 117.188,-60.31299 27.074,-33.125 45.043,-68.848 53.906,-107.188 3.125,-12.08 5.334,-23.955 6.641,-35.625 1.293,-11.66 1.953,-22.91 1.953,-33.75 0,-65.83 -14.979,-118.847 -44.922,-159.062 -29.957,-40.204 -69.41,-60.312 -118.359,-60.312 z m 55.469,402.867 c 0,0 -17.066,10.15 -26.172,12.445 -6.158,1.553 -12.438,2.618 -18.752,3.295 -1.205,0.13 -17.354,0.031 -20.525,-0.265 -6.422,-0.515 -12.731,-1.52 -18.926,-3.03 -7.205,-1.764 -14.167,-4.279 -20.894,-7.395 -1.935,-0.896 -8.674,-5.412 -9.131,-5.791 -1.151,-0.954 -2.3,-1.909 -3.447,-2.868 -2.303,-1.926 -4.595,-3.865 -6.865,-5.831 -4.618,-3.998 -9.143,-8.106 -13.495,-12.394 -4.511,-4.443 -8.835,-9.077 -12.913,-13.923 -4.266,-5.069 -8.26,-10.367 -11.946,-15.875 -3.863,-5.771 -7.386,-11.771 -10.555,-17.952 -3.308,-6.452 -6.23,-13.103 -8.776,-19.892 -2.641,-7.041 -4.877,-14.231 -6.755,-21.513 -1.934,-7.499 -3.487,-15.093 -4.747,-22.732 -1.288,-7.81 -2.268,-15.668 -3.067,-23.542 -0.81,-7.979 -1.433,-15.975 -2.019,-23.973 -0.14,-1.908 -0.419,-3.865 -0.419,-5.778 0,-112.086 64.269,-202.951 143.55,-202.951 79.277,0 143.547,90.864 143.547,202.951 0,84.076 -36.162,156.211 -87.693,187.014 z"
             inkscape:connector-curvature="0"
             style="fill:#000000;fill-opacity:1" /></g></g></g></g></svg>