<?xml version="1.0" encoding="UTF-8" standalone="no"?>
<!-- Created with Inkscape (http://www.inkscape.org/) -->

<svg
   xmlns:dc="http://purl.org/dc/elements/1.1/"
   xmlns:cc="http://creativecommons.org/ns#"
   xmlns:rdf="http://www.w3.org/1999/02/22-rdf-syntax-ns#"
   xmlns:svg="http://www.w3.org/2000/svg"
   xmlns="http://www.w3.org/2000/svg"
   version="1.1"
   width="50"
   height="50"
   viewBox="0 0 216 216"
   id="svg5916">
  <metadata
     id="metadata5922">
    <rdf:RDF>
      <cc:Work
         rdf:about="">
        <dc:format>image/svg+xml</dc:format>
        <dc:type
           rdf:resource="http://purl.org/dc/dcmitype/StillImage" />
        <dc:title></dc:title>
      </cc:Work>
    </rdf:RDF>
  </metadata>
  <defs
     id="defs5920">
    <filter
       color-interpolation-filters="sRGB"
       id="filter7102">
      <feFlood
         result="flood"
         flood-color="rgb(0,0,0)"
         flood-opacity="1"
         id="feFlood7104" />
      <feComposite
         in2="SourceGraphic"
         operator="in"
         in="flood"
         result="composite1"
         id="feComposite7106" />
      <feGaussianBlur
         result="blur"
         stdDeviation="5"
         id="feGaussianBlur7108" />
      <feOffset
         result="offset"
         dy="5"
         dx="5"
         id="feOffset7110" />
      <feComposite
         in2="offset"
         operator="over"
         in="SourceGraphic"
         result="composite2"
         id="feComposite7112" />
    </filter>
  </defs>
  <path
     d="m 98.589243,202.08603 c -0.719858,-6.36271 -0.700333,-6.3435 -7.628126,-7.50442 -3.470727,-0.5816 -3.590888,-0.48699 -6.239135,4.91268 C 83.236844,202.52243 81.654288,205 81.205191,205 c -0.765439,0 -18.410629,-6.91883 -18.956981,-7.4332 -0.138484,-0.13037 0.419145,-2.44874 1.239176,-5.15192 2.062381,-6.79852 2.032909,-6.90453 -2.6958,-9.69713 l -4.208414,-2.48533 -4.792679,4.04125 -4.792679,4.04125 -6.748907,-6.34676 c -3.711899,-3.49072 -7.146608,-6.68178 -7.632686,-7.09124 -0.486079,-0.40946 0.808934,-3.05042 2.877806,-5.86878 l 3.761586,-5.12431 -3.301214,-4.69191 c -1.815668,-2.58056 -3.374346,-4.80559 -3.46373,-4.94451 C 32.401286,154.10849 29.705485,154.89715 26.5,156 c -3.205485,1.10285 -5.940858,1.89151 -6.078608,1.75259 -0.137749,-0.13892 -2.046593,-4.39511 -4.241875,-9.4582 -4.381685,-10.10569 -4.471295,-9.64574 2.570483,-13.1937 2.3375,-1.17774 4.25,-2.38292 4.25,-2.67819 0,-0.29527 -0.424027,-2.42363 -0.942283,-4.72968 -0.518256,-2.30605 -1.196308,-5.40832 -1.506782,-6.89393 -0.516486,-2.47137 -1.077007,-2.7591 -6.590201,-3.38284 L 7.9350316,116.73432 8.2175158,106.11716 8.5,95.5 14.439855,95 20.37971,94.5 21.54047,89.929438 22.70123,85.358877 17.350615,82.464513 C 14.407777,80.872613 12,79.219972 12,78.791977 12,77.095798 19.259011,60 19.979222,60 20.402351,60 22.661701,60.675 25,61.5 27.338299,62.325 29.783251,63 30.433226,63 31.603389,63 38,54.673897 38,53.150762 c 0,-0.43492 -1.644104,-2.711531 -3.653565,-5.059134 l -3.653565,-4.268369 7.565075,-7.565075 7.565074,-7.565074 4.75038,4.0605 4.750379,4.060501 4.088111,-2.615461 c 2.248461,-1.438504 4.201776,-2.672844 4.340701,-2.742978 0.138924,-0.07014 -0.621054,-2.666805 -1.688839,-5.770378 C 60.605962,21.448157 60.41848,19.851187 61.311161,19.274728 63.68799,17.739862 77.368605,12 78.650036,12 c 0.72395,0 2.475944,2.288501 3.89332,5.085558 l 2.577047,5.085558 5.189798,-0.699889 C 96.828599,20.592164 97,20.479297 97,17.065983 97,15.517192 97.28125,12.84375 97.625,11.125 L 98.25,8 l 10.25,0 10.25,0 0.625,3.125 c 0.34375,1.71875 0.625,4.546974 0.625,6.284942 0,3.031827 0.21753,3.199792 5.36535,4.142823 l 5.36534,0.98288 2.84958,-5.267822 C 135.14754,14.37052 136.78003,12 137.20802,12 138.9042,12 156,19.259011 156,19.979222 c 0,0.423129 -0.675,2.682479 -1.5,5.020778 -2.10815,5.97513 -1.98937,6.410376 2.57336,9.429849 l 4.07336,2.695621 3.54011,-2.812735 c 1.94706,-1.547004 4.12663,-3.236832 4.84349,-3.755172 0.93835,-0.678492 3.21712,0.841108 8.13653,5.425851 3.75823,3.502558 6.9781,6.96132 7.15526,7.686138 0.17716,0.724817 -1.31227,3.3124 -3.30985,5.750183 l -3.63197,4.432334 2.99814,4.138799 c 1.64897,2.276339 3.14273,4.572604 3.31946,5.102809 0.1829,0.548708 2.7852,0.116319 6.04051,-1.003672 4.29182,-1.476604 5.91076,-1.670982 6.48687,-0.778844 C 198.26014,63.68799 204,77.368605 204,78.650036 c 0,0.72395 -2.30327,2.483427 -5.11837,3.909949 -5.0196,2.54362 -5.10666,2.664566 -4.51101,6.266846 0.33405,2.020243 0.61232,4.460669 0.61837,5.423169 0.008,1.318814 0.84258,1.75 3.38601,1.75 1.85625,0 4.78125,0.28125 6.5,0.625 l 3.125,0.625 0,10.25 0,10.25 -3.125,0.625 c -1.71875,0.34375 -4.43287,0.625 -6.03138,0.625 -3.07542,0 -3.33539,0.37308 -4.29477,6.16339 -0.60287,3.63862 -0.5696,3.6805 4.92209,6.19467 3.04098,1.39221 5.52906,2.91874 5.52906,3.39229 0,0.79578 -6.90059,18.43571 -7.4332,19.00144 -0.13037,0.13848 -2.44874,-0.41915 -5.15192,-1.23918 -2.70319,-0.82003 -5.41012,-1.49583 -6.0154,-1.50179 -0.60529,-0.006 -2.52498,2.28064 -4.26598,5.08132 l -3.16545,5.09214 3.96398,4.73454 3.96398,4.73453 -7.46027,7.41048 c -5.62268,5.58516 -7.79876,7.16732 -8.83453,6.42332 -0.75585,-0.54293 -2.98033,-2.26281 -4.9433,-3.82194 l -3.56902,-2.83479 -3.79445,2.79434 c -2.08694,1.53689 -3.90811,2.85121 -4.04703,2.92071 -0.13892,0.0695 0.64974,2.74905 1.75259,5.95453 1.10285,3.20548 1.89151,5.94086 1.75259,6.07861 -0.13892,0.13775 -4.39511,2.04659 -9.4582,4.24187 -10.10569,4.38169 -9.64574,4.4713 -13.1937,-2.57048 -2.42344,-4.80989 -1.93069,-4.64257 -8.60069,-2.92057 l -5,1.29086 -0.5,5.93985 -0.5,5.93986 -10.61716,0.28248 -10.617157,0.28249 -0.67644,-5.97894 z M 109,185.1446 l 0,-19.85539 -6.25,-0.60365 C 89.431817,163.39924 73.747107,155.24936 64.711806,144.92065 42.969507,120.06594 47.843079,81.207744 75.10372,62.063342 83.783245,55.967949 91.028519,53.083585 101.25,51.654432 l 7.75,-1.083594 0,-19.842917 0,-19.842917 -4.25,0.307498 -4.25,0.307498 -0.31,5 c -0.17049,2.75 -0.63429,5.328797 -1.030656,5.73066 -0.396366,0.401864 -4.004997,1.351686 -8.019181,2.110716 l -7.298516,1.380056 -2.629142,-5.360716 C 79.766478,17.412322 78.269055,15 77.884899,15 76.204514,15 64,21.00557 64,21.83245 64,22.336303 64.675,24.661701 65.5,27 66.325,29.338299 67,31.581165 67,31.984147 67,32.903089 56.391858,40 55.018265,40 54.461388,40 52.175441,38.346415 49.938383,36.325368 l -4.067379,-3.674633 -5.587773,5.587774 -5.587774,5.587773 3.652272,4.266858 C 40.356478,50.439911 42,52.707438 42,53.132088 42,54.316672 32.946401,67 32.100823,67 c -0.4095,0 -2.885285,-0.729423 -5.501744,-1.62094 -2.641411,-0.90002 -5.092063,-1.233586 -5.510119,-0.75 C 20.20707,65.649185 16,75.907995 16,77.038331 c 0,0.424394 2.1375,2.005238 4.75,3.512988 2.6125,1.507749 4.91321,2.876219 5.11269,3.041044 0.199479,0.164826 -0.177313,2.686473 -0.837316,5.60366 C 22.889235,98.637679 23.4754,98 16.932612,98 L 11,98 l 0,7.90181 0,7.90182 5.859824,0.6801 5.859824,0.68011 1.67387,8.51916 c 0.920628,4.68554 1.771207,9.01223 1.890176,9.61487 0.118968,0.60263 -2.1257,2.37474 -4.988151,3.93801 l -5.204457,2.84232 2.623108,6.2109 c 1.442709,3.41599 2.946269,6.58745 3.341244,7.04769 0.394975,0.46023 3.238623,0.0423 6.319218,-0.9288 3.080594,-0.97107 5.75386,-1.57263 5.94059,-1.33679 0.18673,0.23584 2.269258,3.22258 4.62784,6.6372 l 4.28833,6.20839 -3.57323,4.86772 -3.57323,4.86771 5.382711,5.31585 5.382712,5.31585 4.254809,-3.64196 C 53.445333,178.63888 55.773866,177 56.279706,177 c 0.50584,0 3.368481,1.4625 6.361426,3.25 5.895022,3.52073 5.782231,3.15036 3.801671,12.48338 -0.661403,3.11674 -0.510412,3.3096 4.185521,5.34612 10.076635,4.37001 9.109306,4.49977 12.113104,-1.62486 l 2.702649,-5.51059 4.044183,0.60646 c 11.2992,1.69442 10.92457,1.4503 11.87525,7.73817 0.85486,5.6541 0.89744,5.71132 4.25,5.71132 l 3.38649,0 0,-19.8554 z m 68.7603,-9.40189 5.19198,-5.25728 -3.95488,-4.62682 -3.95488,-4.62681 4.409,-6.71283 c 2.42495,-3.69205 4.58269,-6.88651 4.79497,-7.0988 0.21229,-0.21228 1.80711,0.0216 3.54405,0.51976 l 3.15808,0.90572 -0.0497,-41.83138 -0.0497,-41.831393 -3.16797,0.908562 C 185.93879,66.591147 184.21042,67 183.84034,67 c -0.37007,0 -2.69341,-3.025368 -5.16298,-6.72304 l -4.49012,-6.72304 3.85843,-4.608472 3.85843,-4.608472 -5.23349,-5.168488 C 173.79218,36.32582 170.97295,34 170.40565,34 c -0.56731,0 -2.21266,1.2375 -3.65634,2.75 l -2.62488,2.75 0.008,67.70817 0.008,67.70817 3.46445,3.04183 c 1.90545,1.67301 3.80167,3.04183 4.21382,3.04183 0.41215,0 3.08575,-2.36578 5.94134,-5.25729 z m -51.74522,-16.94805 c 15.98228,-5.82834 28.08471,-18.3583 33.60743,-34.79466 2.566,-7.63678 2.56185,-24.384669 -0.008,-32 C 153.90411,75.077552 140.92245,62.09589 124,56.385426 c -7.62959,-2.574598 -24.370411,-2.574598 -32,0 C 75.369184,61.997479 63.304022,73.619368 57.118977,89.984924 53.859565,98.609287 53.490423,115.49637 56.375426,124 62.898192,143.22604 78.008714,156.83945 97.5,161.05005 c 6.9701,1.50571 21.31217,0.37133 28.51508,-2.25539 z M 81.747526,139.43931 c -3.16386,-0.76674 -7.406107,-2.24243 -9.427215,-3.27932 l -3.674743,-1.88526 5.927216,-0.69632 C 80.359823,132.89857 91,128.66207 91,127.03774 c 0,-0.44834 -1.4625,-1.1051 -3.25,-1.45946 -3.567531,-0.70726 -6.392271,-2.75628 -9.030757,-6.55079 -2.398561,-3.44945 -2.183081,-4.0219 1.530757,-4.06663 l 3.25,-0.0391 -3,-1.33336 c -3.677681,-1.63456 -7.013722,-5.15655 -8.433388,-8.90346 -1.820226,-4.804106 -1.438968,-5.709371 2.105944,-5.000389 l 3.172557,0.634509 -2.922557,-3.831666 C 71.913565,93.197897 71.5,91.772036 71.5,86.411176 c 0,-3.43448 0.317951,-6.562461 0.706559,-6.951068 0.388607,-0.388607 2.863607,1.211287 5.5,3.555319 6.051206,5.380165 17.377219,10.851855 24.114151,11.649745 l 5.17929,0.61341 0,-3.427401 c 0,-5.731484 3.86715,-12.032056 8.96189,-14.601181 5.78842,-2.918931 9.46326,-2.839095 15.85166,0.344377 5.34527,2.66366 5.5958,2.659828 12.68374,-0.193976 1.97261,-0.79423 1.97423,-0.767696 0.13136,2.147717 -1.02627,1.623535 -2.57355,3.514382 -3.43842,4.201882 -1.42432,1.132219 -1.41928,1.25 0.0535,1.25 0.89432,0 2.79272,-0.443574 4.21867,-0.98572 2.38829,-0.908025 2.50915,-0.829716 1.53339,0.993505 -0.58258,1.088574 -2.39498,2.966774 -4.02754,4.173779 C 140.42056,91.065187 140,92.03217 140,96.006557 c 0,10.437453 -6.23022,24.083793 -14.61652,32.015193 -11.52608,10.90089 -27.990942,15.209 -43.635954,11.41756 z"
     id="twitter"
     style="fill:#c2c76c;fill-opacity:1;stroke:#c2c76c;stroke-width:2;stroke-opacity:1;filter:url(#filter7102)" />
</svg>
