<?xml version="1.0" encoding="UTF-8" standalone="no"?>
<!-- Created with Inkscape (http://www.inkscape.org/) -->

        <svg
           xmlns:dc="http://purl.org/dc/elements/1.1/"
           xmlns:cc="http://creativecommons.org/ns#"
           xmlns:rdf="http://www.w3.org/1999/02/22-rdf-syntax-ns#"
           xmlns:svg="http://www.w3.org/2000/svg"
           xmlns="http://www.w3.org/2000/svg"
           version="1.1"
        width="50"
         height="50"
           viewBox="0 0 216 216"
           id="svg6503">
          <metadata
             id="metadata6509">
            <rdf:RDF>
              <cc:Work
                 rdf:about="">
                <dc:format>image/svg+xml</dc:format>
                <dc:type
                   rdf:resource="http://purl.org/dc/dcmitype/StillImage" />
                <dc:title></dc:title>
              </cc:Work>
            </rdf:RDF>
          </metadata>
          <defs
             id="defs6507">
            <filter
               color-interpolation-filters="sRGB"
               id="filter7066">
              <feFlood
                 result="flood"
                 flood-color="rgb(0,0,0)"
                 flood-opacity="1"
                 id="feFlood7068" />
              <feComposite
                 in2="SourceGraphic"
                 operator="in"
                 in="flood"
                 result="composite1"
                 id="feComposite7070" />
              <feGaussianBlur
                 result="blur"
                 stdDeviation="5"
                 id="feGaussianBlur7072" />
              <feOffset
                 result="offset"
                 dy="5"
                 dx="5"
                 id="feOffset7074" />
              <feComposite
                 in2="offset"
                 operator="over"
                 in="SourceGraphic"
                 result="composite2"
                 id="feComposite7076" />
            </filter>
          </defs>
          <path
             d="m 98.589243,202.08603 c -0.719858,-6.36271 -0.700333,-6.3435 -7.628126,-7.50442 -3.470727,-0.5816 -3.590888,-0.48699 -6.239135,4.91268 C 83.236844,202.52243 81.654288,205 81.205191,205 c -0.765439,0 -18.410629,-6.91883 -18.956981,-7.4332 -0.138484,-0.13037 0.419145,-2.44874 1.239176,-5.15192 2.062381,-6.79852 2.032909,-6.90453 -2.6958,-9.69713 l -4.208414,-2.48533 -4.792679,4.04125 -4.792679,4.04125 -6.748907,-6.34676 c -3.711899,-3.49072 -7.146608,-6.68178 -7.632686,-7.09124 -0.486079,-0.40946 0.808934,-3.05042 2.877806,-5.86878 l 3.761586,-5.12431 -3.301214,-4.69191 c -1.815668,-2.58056 -3.374346,-4.80559 -3.46373,-4.94451 C 32.401286,154.10849 29.705485,154.89715 26.5,156 c -3.205485,1.10285 -5.940858,1.89151 -6.078608,1.75259 -0.137749,-0.13892 -2.046593,-4.39511 -4.241875,-9.4582 -4.381685,-10.10569 -4.471295,-9.64574 2.570483,-13.1937 2.3375,-1.17774 4.25,-2.38292 4.25,-2.67819 0,-0.29527 -0.424027,-2.42363 -0.942283,-4.72968 -0.518256,-2.30605 -1.196308,-5.40832 -1.506782,-6.89393 -0.516486,-2.47137 -1.077007,-2.7591 -6.590201,-3.38284 L 7.9350316,116.73432 8.2175158,106.11716 8.5,95.5 14.439855,95 20.37971,94.5 21.54047,89.929438 22.70123,85.358877 17.350615,82.464513 C 14.407777,80.872613 12,79.219972 12,78.791977 12,77.095798 19.259011,60 19.979222,60 20.402351,60 22.661701,60.675 25,61.5 27.338299,62.325 29.783251,63 30.433226,63 31.603389,63 38,54.673897 38,53.150762 c 0,-0.43492 -1.644104,-2.711531 -3.653565,-5.059134 l -3.653565,-4.268369 7.565075,-7.565075 7.565074,-7.565074 4.75038,4.0605 4.750379,4.060501 4.088111,-2.615461 c 2.248461,-1.438504 4.201776,-2.672844 4.340701,-2.742978 0.138924,-0.07014 -0.621054,-2.666805 -1.688839,-5.770378 C 60.605962,21.448157 60.41848,19.851187 61.311161,19.274728 63.68799,17.739862 77.368605,12 78.650036,12 c 0.72395,0 2.475944,2.288501 3.89332,5.085558 l 2.577047,5.085558 5.189798,-0.699889 C 96.828599,20.592164 97,20.479297 97,17.065983 97,15.517192 97.28125,12.84375 97.625,11.125 L 98.25,8 l 10.25,0 10.25,0 0.625,3.125 c 0.34375,1.71875 0.625,4.546974 0.625,6.284942 0,3.031827 0.21753,3.199792 5.36535,4.142823 l 5.36534,0.98288 2.84958,-5.267822 C 135.14754,14.37052 136.78003,12 137.20802,12 138.9042,12 156,19.259011 156,19.979222 c 0,0.423129 -0.675,2.682479 -1.5,5.020778 -2.10815,5.97513 -1.98937,6.410376 2.57336,9.429849 l 4.07336,2.695621 3.54011,-2.812735 c 1.94706,-1.547004 4.12663,-3.236832 4.84349,-3.755172 0.93835,-0.678492 3.21712,0.841108 8.13653,5.425851 3.75823,3.502558 6.9781,6.96132 7.15526,7.686138 0.17716,0.724817 -1.31227,3.3124 -3.30985,5.750183 l -3.63197,4.432334 2.99814,4.138799 c 1.64897,2.276339 3.14273,4.572604 3.31946,5.102809 0.1829,0.548708 2.7852,0.116319 6.04051,-1.003672 4.29182,-1.476604 5.91076,-1.670982 6.48687,-0.778844 C 198.26014,63.68799 204,77.368605 204,78.650036 c 0,0.72395 -2.30327,2.483427 -5.11837,3.909949 -5.0196,2.54362 -5.10666,2.664566 -4.51101,6.266846 0.33405,2.020243 0.61232,4.460669 0.61837,5.423169 0.008,1.318814 0.84258,1.75 3.38601,1.75 1.85625,0 4.78125,0.28125 6.5,0.625 l 3.125,0.625 0,10.25 0,10.25 -3.125,0.625 c -1.71875,0.34375 -4.43287,0.625 -6.03138,0.625 -3.07542,0 -3.33539,0.37308 -4.29477,6.16339 -0.60287,3.63862 -0.5696,3.6805 4.92209,6.19467 3.04098,1.39221 5.52906,2.91874 5.52906,3.39229 0,0.79578 -6.90059,18.43571 -7.4332,19.00144 -0.13037,0.13848 -2.44874,-0.41915 -5.15192,-1.23918 -2.70319,-0.82003 -5.41012,-1.49583 -6.0154,-1.50179 -0.60529,-0.006 -2.52498,2.28064 -4.26598,5.08132 l -3.16545,5.09214 3.96398,4.73454 3.96398,4.73453 -7.46027,7.41048 c -5.62268,5.58516 -7.79876,7.16732 -8.83453,6.42332 -0.75585,-0.54293 -2.98033,-2.26281 -4.9433,-3.82194 l -3.56902,-2.83479 -3.79445,2.79434 c -2.08694,1.53689 -3.90811,2.85121 -4.04703,2.92071 -0.13892,0.0695 0.64974,2.74905 1.75259,5.95453 1.10285,3.20548 1.89151,5.94086 1.75259,6.07861 -0.13892,0.13775 -4.39511,2.04659 -9.4582,4.24187 -10.10569,4.38169 -9.64574,4.4713 -13.1937,-2.57048 -2.42344,-4.80989 -1.93069,-4.64257 -8.60069,-2.92057 l -5,1.29086 -0.5,5.93985 -0.5,5.93986 -10.61716,0.28248 -10.617157,0.28249 -0.67644,-5.97894 z M 111,185.14504 l 0,-19.85497 -6.91053,-0.57935 c -9.355028,-0.78429 -20.141801,-4.71018 -28.348445,-10.31753 -32.843422,-22.44092 -32.843422,-70.345462 0,-92.786377 8.206644,-5.607351 18.993417,-9.533241 28.348445,-10.317533 L 111,50.709926 l 0,-19.907223 0,-19.907222 -5.25,0.302259 -5.25,0.30226 -0.5,5.494384 -0.5,5.494385 -7.835681,1.603069 -7.835681,1.603069 -2.622637,-5.347453 C 79.763551,17.406354 78.217227,15 77.769725,15 76.034032,15 64,20.923933 64,21.778354 c 0,0.497081 0.670129,3.112803 1.489176,5.812715 0.819046,2.699912 1.494046,4.95772 1.5,5.017351 C 67.028603,33.003334 55.864922,40 55.195383,40 54.735921,40 52.439911,38.356478 50.09314,36.347729 l -4.266858,-3.652272 -5.557637,5.557637 -5.557636,5.557636 3.835261,4.680432 c 2.656816,3.242293 3.546197,5.063058 2.894496,5.925695 -0.517421,0.684894 -2.664096,3.830681 -4.770389,6.990637 -2.392779,3.589756 -4.339071,5.549882 -5.187454,5.224327 -4.233462,-1.624532 -9.843102,-2.666563 -10.522429,-1.954617 -0.431805,0.452538 -1.920866,3.642257 -3.309026,7.088265 l -2.523928,6.265469 5.18623,2.604831 c 2.852427,1.432658 5.287963,2.689929 5.412302,2.793937 C 26.157139,83.790285 23.481009,95.506154 22.68346,96.75 22.203438,97.498637 19.699639,98 16.440983,98 L 11,98 l 0,7.88649 0,7.88649 5.740994,0.86351 5.740994,0.86351 1.70082,8 c 0.93545,4.4 1.727003,8.71598 1.759006,9.59107 0.03328,0.90999 -2.064946,2.74663 -4.901646,4.29055 -5.482346,2.98387 -5.397735,2.12692 -1.171824,11.86838 1.13332,2.6125 2.374522,4.75 2.758227,4.75 0.383704,0 3.176711,-0.78146 6.20668,-1.73657 4.265813,-1.34468 5.603473,-1.45326 5.927514,-0.48114 0.230163,0.69049 2.178148,3.59734 4.328856,6.45966 2.150709,2.86233 3.906011,5.44134 3.900673,5.73114 -0.0053,0.2898 -1.599899,2.52746 -3.543469,4.97257 l -3.533762,4.44566 5.448834,5.44884 5.448833,5.44883 4.447627,-3.64449 C 53.704552,178.64002 56.042006,177 56.452699,177 c 1.966072,0 11.49401,6.69256 11.518939,8.09107 0.0156,0.87509 -0.588791,3.64171 -1.343089,6.14805 -1.549005,5.14696 -2.070524,4.61223 8.636553,8.85527 l 4.765103,1.88833 2.706936,-5.51934 2.706936,-5.51933 4.044183,0.60646 c 11.2992,1.69442 10.92457,1.4503 11.87525,7.73817 l 0.86351,5.71132 4.38649,0 4.38649,0 0,-19.85496 z m 66.7603,-9.40233 5.19198,-5.25728 -3.9464,-4.6169 -3.9464,-4.6169 4.6421,-7.13866 c 3.56306,-5.4793 5.06706,-7.01945 6.47026,-6.62582 1.00549,0.28207 2.72816,0.76817 3.82816,1.08024 1.89398,0.53731 2,0.0899 2,-8.44099 0,-4.9546 -0.40315,-9.25753 -0.89589,-9.56206 -0.52186,-0.32252 -0.53182,-2.12151 -0.0239,-4.30901 1.25997,-5.42592 1.11672,-31.238436 -0.20762,-37.413651 -0.8365,-3.900458 -0.8365,-5.353722 0,-5.632554 C 191.59758,82.967473 192,79.626456 192,73.849279 c 0,-8.087633 -0.17461,-8.932179 -1.75,-8.464154 -6.95796,2.06711 -6.70738,2.176567 -11.52265,-5.03332 l -4.54011,-6.797885 3.85717,-4.606962 3.85717,-4.606962 -5.73628,-5.676421 -5.73628,-5.676421 -4.21451,4.294274 -4.21451,4.294275 0.0356,23.462149 c 0.0257,16.952265 0.4376,25.126927 1.48438,29.462148 1.85222,7.67094 1.85222,19.32906 0,27 -1.03954,4.30525 -1.45882,12.41572 -1.48438,28.71388 L 162,172.92776 l 4.25,4.01112 c 2.3375,2.20611 4.71537,4.02236 5.28416,4.03612 0.56879,0.0138 3.37055,-2.34078 6.22614,-5.23229 z m -51.74522,-16.94805 c 15.98228,-5.82834 28.08471,-18.3583 33.60743,-34.79466 2.566,-7.63678 2.56185,-24.384669 -0.008,-32 C 153.90411,75.077552 140.92245,62.09589 124,56.385426 c -7.62959,-2.574598 -24.370411,-2.574598 -32,0 C 75.369184,61.997479 63.304022,73.619368 57.118977,89.984924 53.859565,98.609287 53.490423,115.49637 56.375426,124 62.898192,143.22604 78.008714,156.83945 97.5,161.05005 c 6.9701,1.50571 21.31217,0.37133 28.51508,-2.25539 z m -48.594771,-9.68013 c -4.927121,-3.00455 -5.602969,-6.02359 -5.242432,-23.41817 0.307945,-14.85715 0.428891,-15.6547 2.747866,-18.12029 1.334159,-1.41851 4.034159,-3.02592 6,-3.57201 4.649896,-1.29171 49.498617,-1.29171 54.148517,0 1.96584,0.54609 4.66584,2.15352 6,3.57206 2.32425,2.47125 2.43903,3.24193 2.74343,18.42027 0.51602,25.73019 1.5608,25.00502 -36.01803,24.99987 -24.944644,-0.003 -27.565331,-0.16574 -30.379351,-1.88173 z M 87,129.5 87,116 l 3,0 c 2.333333,0 3,-0.44444 3,-2 0,-1.83333 -0.666667,-2 -8,-2 -7.333333,0 -8,0.16667 -8,2 0,1.46667 0.666667,2 2.5,2 l 2.5,0 0,13.5 0,13.5 2.5,0 2.5,0 0,-13.5 z m 12.065741,12.46482 c 1.333329,-0.71358 1.934259,-0.71358 1.934259,0 0,0.56935 0.9,1.03518 2,1.03518 1.88406,0 2,-0.66667 2,-11.5 l 0,-11.5 -2.5,0 c -2.49123,0 -2.5,0.0333 -2.5,9.5 0,7.77778 -0.27193,9.5 -1.5,9.5 -1.22807,0 -1.5,-1.72222 -1.5,-9.5 0,-9.46667 -0.0088,-9.5 -2.5,-9.5 -2.498626,0 -2.5,0.005 -2.5,9.91821 0,5.45502 0.273145,10.63002 0.606989,11.5 0.695149,1.81153 3.630969,2.05999 6.458752,0.54661 z M 112,142.08686 c 0,-0.50222 1.38636,-0.38984 3.0808,0.24974 2.68695,1.01421 3.26224,0.91475 4.5,-0.77799 1.69464,-2.31755 1.97997,-17.64228 0.38402,-20.62435 -1.16668,-2.17996 -3.96296,-2.53612 -5.76482,-0.73426 -0.93333,0.93333 -1.2,0.15556 -1.2,-3.5 0,-4.34667 -0.18794,-4.7 -2.5,-4.7 l -2.5,0 0,15.5 c 0,14.83333 0.086,15.5 2,15.5 1.1,0 2,-0.41091 2,-0.91314 z m 1.41949,-4.43607 c -0.28476,-0.74207 -0.38314,-4.45457 -0.21862,-8.25 C 113.4321,124.06637 113.84048,122.5 115,122.5 c 1.18865,0 1.56029,1.71242 1.79044,8.25 0.24494,6.95741 0.0442,8.25 -1.28138,8.25 -0.86451,0 -1.80481,-0.60715 -2.08957,-1.34921 z M 135,141 c 1.1,-1.1 2,-2.9 2,-4 0,-1.33333 -0.66667,-2 -2,-2 -1.33333,0 -2,0.66667 -2,2 0,1.46667 -0.66667,2 -2.5,2 -2.19048,0 -2.5,-0.43333 -2.5,-3.5 0,-3.48148 0.0238,-3.5 4.5,-3.5 l 4.5,0 0,-4.27749 C 137,121.93197 134.8151,119 130.5,119 c -4.87814,0 -6.5,2.81661 -6.5,11.28825 0,6.59536 1.08249,10.39919 3.3997,11.94644 2.03375,1.35796 5.58447,0.78114 7.6003,-1.23469 z m -6.81955,-15.25 c 0.20974,-1.47682 1.00682,-2.25 2.31955,-2.25 1.31273,0 2.10981,0.77318 2.31955,2.25 0.26213,1.84568 -0.15469,2.25 -2.31955,2.25 -2.16486,0 -2.58168,-0.40432 -2.31955,-2.25 z M 89.708849,98.375516 C 89.318982,97.985649 89,93.503974 89,88.416239 89,81.22818 88.532673,78.088321 86.903882,74.332905 82.68283,64.600658 82.724715,65 85.92501,65 c 2.623837,0 2.980442,0.437412 4.074441,4.997713 0.659413,2.748742 1.548949,4.781391 1.976746,4.516998 0.427797,-0.264393 1.28964,-2.513364 1.915206,-4.997713 C 94.914495,65.45393 95.32179,65 97.944342,65 l 2.915548,0 -2.662268,6.25 c -2.118662,4.973822 -2.76797,8.393979 -3.179944,16.75 -0.473719,9.608391 -0.691003,10.524811 -2.558829,10.792183 -1.122633,0.1607 -2.360133,-0.0268 -2.75,-0.416667 z M 104,97.701124 c -2.37437,-1.192033 -2.51436,-1.74189 -2.78578,-10.942333 -0.25461,-8.630666 -0.0637,-9.909268 1.75,-11.723011 2.54676,-2.546764 5.13465,-2.58606 8.175,-0.124133 2.16641,1.754252 2.36078,2.656994 2.36078,10.964286 0,6.745283 -0.38232,9.41671 -1.5,10.481029 -2.33481,2.22335 -5.26733,2.716073 -8,1.344162 z m 4.5,-11.784457 C 108.5,79.101852 108.21452,77.5 107,77.5 c -1.17158,0 -1.56502,1.621587 -1.79697,7.406415 -0.32658,8.144996 0.15773,10.473331 2.0475,9.84341 0.86734,-0.289114 1.24947,-2.990603 1.24947,-8.833158 z m 9.07958,10.430117 C 117.26081,95.516087 117,90.148229 117,84.418213 117,74.730703 117.13773,74 118.96379,74 c 1.79769,0 1.98799,0.823688 2.25,9.738416 0.24527,8.345303 0.53655,9.786325 2.03621,10.073324 1.57301,0.301037 1.75,-0.683856 1.75,-9.738416 C 125,74.666667 125.13236,74 127,74 c 1.88822,0 2,0.666667 2,11.928571 l 0,11.928572 -5.42042,0 c -3.91218,0 -5.58169,-0.420259 -6,-1.510359 z"
             id="youtube"
             style="  fill: #C2C76C;
  stroke: #C2C76C;fill-opacity:1;stroke-opacity:1;filter:url(#filter7066)" />
        </svg>